{
  "accessors": [
    {
      "bufferView": 2,
      "componentType": 5126,
      "count": 64903,
      "max": [
        4.063851833343506,
        4.63186502456665,
        1.3798010349273682
      ],
      "min": [
        -4.490818977355957,
        1.4598950147628784,
        -0.8233039975166321
      ],
      "type": "VEC3"
    },
    {
      "bufferView": 2,
      "byteOffset": 778836,
      "componentType": 5126,
      "count": 64903,
      "max": [
        0.9997777342796326,
        0.999209463596344,
        0.9996306896209717
      ],
      "min": [
        -0.9998778104782104,
        -0.9999844431877136,
        -0.9996786117553711
      ],
      "type": "VEC3"
    },
    {
      "bufferView": 1,
      "componentType": 5126,
      "count": 64903,
      "max": [
        0.7177090048789978,
        1.0
      ],
      "min": [
        0.00010599999950500205,
        0.0
      ],
      "type": "VEC2"
    },
    {
      "bufferView": 0,
      "componentType": 5125,
      "count": 350124,
      "type": "SCALAR"
    }
  ],
  "asset": {
    "extras": {
      "author": "Forest Run Forever (https://sketchfab.com/2w)",
      "license": "CC-BY-4.0 (http://creativecommons.org/licenses/by/4.0/)",
      "source": "https://sketchfab.com/3d-models/road-04-7f5930ae704f46288ae9579d0abe7a47",
      "title": "Road 04"
    },
    "generator": "Sketchfab-12.67.0",
    "version": "2.0"
  },
  "bufferViews": [
    {
      "buffer": 0,
      "byteLength": 1400496,
      "name": "floatBufferViews",
      "target": 34963
    },
    {
      "buffer": 0,
      "byteLength": 519224,
      "byteOffset": 1400496,
      "byteStride": 8,
      "name": "floatBufferViews",
      "target": 34962
    },
    {
      "buffer": 0,
      "byteLength": 1557672,
      "byteOffset": 1919720,
      "byteStride": 12,
      "name": "floatBufferViews",
      "target": 34962
    }
  ],
  "buffers": [
    {
      "byteLength": 3477392,
      "uri": "scene.bin"
    }
  ],
  "images": [
    {
      "uri": "textures/road_04_baseColor.jpeg"
    }
  ],
  "materials": [
    {
      "doubleSided": true,
      "name": "road_04",
      "pbrMetallicRoughness": {
        "baseColorTexture": {
          "index": 0
        },
        "metallicFactor": 0.0
      }
    }
  ],
  "meshes": [
    {
      "name": "Object_0",
      "primitives": [
        {
          "attributes": {
            "NORMAL": 1,
            "POSITION": 0,
            "TEXCOORD_0": 2
          },
          "indices": 3,
          "material": 0,
          "mode": 4
        }
      ]
    }
  ],
  "nodes": [
    {
      "children": [
        1
      ],
      "matrix": [
        0.9572486281394958,
        0.26553845405578613,
        0.11473639309406286,
        0.0,
        0.2892410457134247,
        -0.8733856081962584,
        -0.39183819293975847,
        0.0,
        -0.0038389868568629026,
        0.40827301144599937,
        -0.9128518104553222,
        0.0,
        -0.8890534043312073,
        2.881567239761353,
        -1.5738970041275018,
        1.0
      ],
      "name": "Sketchfab_model"
    },
    {
      "children": [
        2
      ],
      "name": "road_04.obj.cleaner.materialmerger.gles"
    },
    {
      "mesh": 0,
      "name": "Object_2"
    }
  ],
  "samplers": [
    {
      "magFilter": 9729,
      "minFilter": 9987,
      "wrapS": 10497,
      "wrapT": 10497
    }
  ],
  "scene": 0,
  "scenes": [
    {
      "name": "Sketchfab_Scene",
      "nodes": [
        0
      ]
    }
  ],
  "textures": [
    {
      "sampler": 0,
      "source": 0
    }
  ]
}
