{
  "accessors": [
    {
      "bufferView": 2,
      "componentType": 5126,
      "count": 32,
      "max": [
        1.0,
        1.0,
        1.0
      ],
      "min": [
        -24.381288528442383,
        -1.0,
        -1.0
      ],
      "type": "VEC3"
    },
    {
      "bufferView": 2,
      "byteOffset": 384,
      "componentType": 5126,
      "count": 32,
      "max": [
        1.0,
        0.0,
        1.0
      ],
      "min": [
        -1.0,
        0.0,
        -1.0
      ],
      "type": "VEC3"
    },
    {
      "bufferView": 3,
      "componentType": 5126,
      "count": 32,
      "max": [
        1.0,
        1.0,
        0.0,
        1.0
      ],
      "min": [
        -1.0,
        -1.0,
        0.0,
        1.0
      ],
      "type": "VEC4"
    },
    {
      "bufferView": 1,
      "componentType": 5126,
      "count": 32,
      "max": [
        0.625,
        1.0
      ],
      "min": [
        0.375,
        0.0
      ],
      "type": "VEC2"
    },
    {
      "bufferView": 1,
      "byteOffset": 256,
      "componentType": 5126,
      "count": 32,
      "max": [
        0.0,
        1.0
      ],
      "min": [
        0.0,
        1.0
      ],
      "type": "VEC2"
    },
    {
      "bufferView": 1,
      "byteOffset": 512,
      "componentType": 5126,
      "count": 32,
      "max": [
        0.625,
        1.0
      ],
      "min": [
        0.375,
        0.0
      ],
      "type": "VEC2"
    },
    {
      "bufferView": 1,
      "byteOffset": 768,
      "componentType": 5126,
      "count": 32,
      "max": [
        0.625,
        1.0
      ],
      "min": [
        0.375,
        0.0
      ],
      "type": "VEC2"
    },
    {
      "bufferView": 1,
      "byteOffset": 1024,
      "componentType": 5126,
      "count": 32,
      "max": [
        0.625,
        1.0
      ],
      "min": [
        0.375,
        0.0
      ],
      "type": "VEC2"
    },
    {
      "bufferView": 0,
      "componentType": 5125,
      "count": 48,
      "type": "SCALAR"
    },
    {
      "bufferView": 2,
      "byteOffset": 768,
      "componentType": 5126,
      "count": 3071,
      "max": [
        2.8020706176757813,
        2.4802968502044678,
        1.1048997640609741
      ],
      "min": [
        -26.183361053466797,
        -1.3125362396240234,
        -4.0087175369262695
      ],
      "type": "VEC3"
    },
    {
      "bufferView": 2,
      "byteOffset": 37620,
      "componentType": 5126,
      "count": 3071,
      "max": [
        1.0,
        1.0,
        1.0
      ],
      "min": [
        -1.0,
        -1.0,
        -1.0
      ],
      "type": "VEC3"
    },
    {
      "bufferView": 3,
      "byteOffset": 512,
      "componentType": 5126,
      "count": 3071,
      "max": [
        1.0,
        1.0,
        1.0,
        1.0
      ],
      "min": [
        -1.0,
        -1.0,
        -1.0,
        -1.0
      ],
      "type": "VEC4"
    },
    {
      "bufferView": 1,
      "byteOffset": 1280,
      "componentType": 5126,
      "count": 3071,
      "max": [
        1.0,
        1.0
      ],
      "min": [
        0.0,
        0.0011532306671142578
      ],
      "type": "VEC2"
    },
    {
      "bufferView": 1,
      "byteOffset": 25848,
      "componentType": 5126,
      "count": 3071,
      "max": [
        0.875,
        1.0
      ],
      "min": [
        0.0,
        0.2152247428894043
      ],
      "type": "VEC2"
    },
    {
      "bufferView": 1,
      "byteOffset": 50416,
      "componentType": 5126,
      "count": 3071,
      "max": [
        1.0,
        1.0
      ],
      "min": [
        0.0,
        0.0011532306671142578
      ],
      "type": "VEC2"
    },
    {
      "bufferView": 1,
      "byteOffset": 74984,
      "componentType": 5126,
      "count": 3071,
      "max": [
        1.0,
        1.0
      ],
      "min": [
        0.0,
        0.0011532306671142578
      ],
      "type": "VEC2"
    },
    {
      "bufferView": 1,
      "byteOffset": 99552,
      "componentType": 5126,
      "count": 3071,
      "max": [
        1.0,
        1.0
      ],
      "min": [
        0.0,
        0.0011532306671142578
      ],
      "type": "VEC2"
    },
    {
      "bufferView": 0,
      "byteOffset": 192,
      "componentType": 5125,
      "count": 4776,
      "type": "SCALAR"
    },
    {
      "bufferView": 2,
      "byteOffset": 74472,
      "componentType": 5126,
      "count": 208,
      "max": [
        1.0438642501831055,
        2.4681196212768555,
        1.0525635480880737
      ],
      "min": [
        -24.425153732299805,
        1.9017707109451294,
        -1.0630451440811157
      ],
      "type": "VEC3"
    },
    {
      "bufferView": 2,
      "byteOffset": 76968,
      "componentType": 5126,
      "count": 208,
      "max": [
        1.0,
        1.0,
        1.0
      ],
      "min": [
        -1.0,
        -1.0,
        -1.0
      ],
      "type": "VEC3"
    },
    {
      "bufferView": 3,
      "byteOffset": 49648,
      "componentType": 5126,
      "count": 208,
      "max": [
        1.0,
        1.0,
        1.0,
        1.0
      ],
      "min": [
        -1.0,
        -1.0,
        -1.0,
        1.0
      ],
      "type": "VEC4"
    },
    {
      "bufferView": 1,
      "byteOffset": 124120,
      "componentType": 5126,
      "count": 208,
      "max": [
        1.0487581491470337,
        0.9000515937805176
      ],
      "min": [
        -0.04730290174484253,
        0.012061715126037598
      ],
      "type": "VEC2"
    },
    {
      "bufferView": 1,
      "byteOffset": 125784,
      "componentType": 5126,
      "count": 208,
      "max": [
        0.0,
        1.0
      ],
      "min": [
        0.0,
        1.0
      ],
      "type": "VEC2"
    },
    {
      "bufferView": 1,
      "byteOffset": 127448,
      "componentType": 5126,
      "count": 208,
      "max": [
        1.0487581491470337,
        0.9000515937805176
      ],
      "min": [
        -0.04730290174484253,
        0.012061715126037598
      ],
      "type": "VEC2"
    },
    {
      "bufferView": 1,
      "byteOffset": 129112,
      "componentType": 5126,
      "count": 208,
      "max": [
        1.0487581491470337,
        0.9000515937805176
      ],
      "min": [
        -0.04730290174484253,
        0.012061715126037598
      ],
      "type": "VEC2"
    },
    {
      "bufferView": 1,
      "byteOffset": 130776,
      "componentType": 5126,
      "count": 208,
      "max": [
        1.0487581491470337,
        0.9000515937805176
      ],
      "min": [
        -0.04730290174484253,
        0.012061715126037598
      ],
      "type": "VEC2"
    },
    {
      "bufferView": 0,
      "byteOffset": 19296,
      "componentType": 5125,
      "count": 312,
      "type": "SCALAR"
    },
    {
      "bufferView": 2,
      "byteOffset": 79464,
      "componentType": 5126,
      "count": 47456,
      "max": [
        2.624279022216797,
        1.4704042673110962,
        1.0250120162963867
      ],
      "min": [
        -26.005569458007813,
        -1.2355834245681763,
        -3.890881061553955
      ],
      "type": "VEC3"
    },
    {
      "bufferView": 2,
      "byteOffset": 648936,
      "componentType": 5126,
      "count": 47456,
      "max": [
        1.0,
        1.0,
        1.0
      ],
      "min": [
        -1.0,
        -1.0,
        -1.0
      ],
      "type": "VEC3"
    },
    {
      "bufferView": 3,
      "byteOffset": 52976,
      "componentType": 5126,
      "count": 47456,
      "max": [
        1.0,
        1.0,
        1.0,
        1.0
      ],
      "min": [
        -1.0,
        -1.0,
        -1.0,
        1.0
      ],
      "type": "VEC4"
    },
    {
      "bufferView": 1,
      "byteOffset": 132440,
      "componentType": 5126,
      "count": 47456,
      "max": [
        0.9999732971191406,
        1.0
      ],
      "min": [
        0.0,
        0.0
      ],
      "type": "VEC2"
    },
    {
      "bufferView": 1,
      "byteOffset": 512088,
      "componentType": 5126,
      "count": 47456,
      "max": [
        0.0,
        1.0
      ],
      "min": [
        0.0,
        1.0
      ],
      "type": "VEC2"
    },
    {
      "bufferView": 1,
      "byteOffset": 891736,
      "componentType": 5126,
      "count": 47456,
      "max": [
        0.9999732971191406,
        1.0
      ],
      "min": [
        0.0,
        0.0
      ],
      "type": "VEC2"
    },
    {
      "bufferView": 1,
      "byteOffset": 1271384,
      "componentType": 5126,
      "count": 47456,
      "max": [
        0.9999732971191406,
        1.0
      ],
      "min": [
        0.0,
        0.0
      ],
      "type": "VEC2"
    },
    {
      "bufferView": 1,
      "byteOffset": 1651032,
      "componentType": 5126,
      "count": 47456,
      "max": [
        0.9999732971191406,
        1.0
      ],
      "min": [
        0.0,
        0.0
      ],
      "type": "VEC2"
    },
    {
      "bufferView": 0,
      "byteOffset": 20544,
      "componentType": 5125,
      "count": 71184,
      "type": "SCALAR"
    }
  ],
  "asset": {
    "extras": {
      "author": "Arsen Ismailov (https://sketchfab.com/fdgasd7)",
      "license": "CC-BY-4.0 (http://creativecommons.org/licenses/by/4.0/)",
      "source": "https://sketchfab.com/3d-models/racetrack-footbridge-6de68ead889c4df98644d0909b1d8938",
      "title": "racetrack footbridge"
    },
    "generator": "Sketchfab-15.27.0",
    "version": "2.0"
  },
  "bufferViews": [
    {
      "buffer": 0,
      "byteLength": 305280,
      "name": "floatBufferViews",
      "target": 34963
    },
    {
      "buffer": 0,
      "byteLength": 2030680,
      "byteOffset": 305280,
      "byteStride": 8,
      "name": "floatBufferViews",
      "target": 34962
    },
    {
      "buffer": 0,
      "byteLength": 1218408,
      "byteOffset": 2335960,
      "byteStride": 12,
      "name": "floatBufferViews",
      "target": 34962
    },
    {
      "buffer": 0,
      "byteLength": 812272,
      "byteOffset": 3554368,
      "byteStride": 16,
      "name": "floatBufferViews",
      "target": 34962
    }
  ],
  "buffers": [
    {
      "byteLength": 4366640,
      "uri": "scene.bin"
    }
  ],
  "extensionsUsed": [
    "KHR_materials_specular"
  ],
  "images": [
    {
      "uri": "textures/Tarp_baseColor.png"
    },
    {
      "uri": "textures/Tarp_metallicRoughness.png"
    },
    {
      "uri": "textures/Tarp_normal.png"
    },
    {
      "uri": "textures/Tarp_specularf0.png"
    },
    {
      "uri": "textures/MainMetal_baseColor.jpeg"
    },
    {
      "uri": "textures/MainMetal_metallicRoughness.png"
    },
    {
      "uri": "textures/MainMetal_normal.jpeg"
    },
    {
      "uri": "textures/RailingMetal_baseColor.png"
    },
    {
      "uri": "textures/RailingMetal_metallicRoughness.png"
    },
    {
      "uri": "textures/RailingMetal_normal.jpeg"
    },
    {
      "uri": "textures/ScaffoldingMetal_baseColor.jpeg"
    },
    {
      "uri": "textures/ScaffoldingMetal_metallicRoughness.png"
    },
    {
      "uri": "textures/ScaffoldingMetal_normal.jpeg"
    }
  ],
  "materials": [
    {
      "doubleSided": true,
      "extensions": {
        "KHR_materials_specular": {
          "specularColorFactor": [
            1.0,
            1.0,
            1.0
          ],
          "specularFactor": 1.0,
          "specularTexture": {
            "index": 3,
            "texCoord": 1
          }
        }
      },
      "name": "Tarp",
      "normalTexture": {
        "index": 2
      },
      "pbrMetallicRoughness": {
        "baseColorTexture": {
          "index": 0
        },
        "metallicRoughnessTexture": {
          "index": 1
        }
      }
    },
    {
      "doubleSided": true,
      "name": "MainMetal",
      "normalTexture": {
        "index": 6
      },
      "pbrMetallicRoughness": {
        "baseColorTexture": {
          "index": 4
        },
        "metallicRoughnessTexture": {
          "index": 5
        }
      }
    },
    {
      "doubleSided": true,
      "name": "RailingMetal",
      "normalTexture": {
        "index": 9
      },
      "pbrMetallicRoughness": {
        "baseColorTexture": {
          "index": 7
        },
        "metallicRoughnessTexture": {
          "index": 8
        }
      }
    },
    {
      "doubleSided": true,
      "name": "ScaffoldingMetal",
      "normalTexture": {
        "index": 12
      },
      "pbrMetallicRoughness": {
        "baseColorTexture": {
          "index": 10
        },
        "metallicRoughnessTexture": {
          "index": 11
        }
      }
    }
  ],
  "meshes": [
    {
      "name": "Object_0",
      "primitives": [
        {
          "attributes": {
            "NORMAL": 1,
            "POSITION": 0,
            "TANGENT": 2,
            "TEXCOORD_0": 3,
            "TEXCOORD_1": 4,
            "TEXCOORD_2": 5,
            "TEXCOORD_3": 6,
            "TEXCOORD_4": 7
          },
          "indices": 8,
          "material": 0,
          "mode": 4
        }
      ]
    },
    {
      "name": "Object_1",
      "primitives": [
        {
          "attributes": {
            "NORMAL": 10,
            "POSITION": 9,
            "TANGENT": 11,
            "TEXCOORD_0": 12,
            "TEXCOORD_1": 13,
            "TEXCOORD_2": 14,
            "TEXCOORD_3": 15,
            "TEXCOORD_4": 16
          },
          "indices": 17,
          "material": 1,
          "mode": 4
        }
      ]
    },
    {
      "name": "Object_2",
      "primitives": [
        {
          "attributes": {
            "NORMAL": 19,
            "POSITION": 18,
            "TANGENT": 20,
            "TEXCOORD_0": 21,
            "TEXCOORD_1": 22,
            "TEXCOORD_2": 23,
            "TEXCOORD_3": 24,
            "TEXCOORD_4": 25
          },
          "indices": 26,
          "material": 2,
          "mode": 4
        }
      ]
    },
    {
      "name": "Object_3",
      "primitives": [
        {
          "attributes": {
            "NORMAL": 28,
            "POSITION": 27,
            "TANGENT": 29,
            "TEXCOORD_0": 30,
            "TEXCOORD_1": 31,
            "TEXCOORD_2": 32,
            "TEXCOORD_3": 33,
            "TEXCOORD_4": 34
          },
          "indices": 35,
          "material": 3,
          "mode": 4
        }
      ]
    }
  ],
  "nodes": [
    {
      "children": [
        1
      ],
      "matrix": [
        1.0,
        0.0,
        0.0,
        0.0,
        0.0,
        2.220446049250313e-16,
        -1.0,
        0.0,
        0.0,
        1.0,
        2.220446049250313e-16,
        0.0,
        0.0,
        0.0,
        0.0,
        1.0
      ],
      "name": "Sketchfab_model"
    },
    {
      "children": [
        2
      ],
      "name": "root"
    },
    {
      "children": [
        3
      ],
      "matrix": [
        1.0,
        0.0,
        0.0,
        0.0,
        0.0,
        2.220446049250313e-16,
        1.0,
        0.0,
        0.0,
        -1.0,
        2.220446049250313e-16,
        0.0,
        0.0,
        0.0,
        0.0,
        1.0
      ],
      "name": "GLTF_SceneRootNode"
    },
    {
      "children": [
        4,
        5,
        6,
        7
      ],
      "matrix": [
        0.46965980529785156,
        0.0,
        0.0,
        0.0,
        0.0,
        1.0,
        0.0,
        0.0,
        0.0,
        0.0,
        0.9039403200149536,
        0.0,
        5.490625858306885,
        1.2154943943023682,
        0.0012367479503154755,
        1.0
      ],
      "name": "Tarp_0"
    },
    {
      "mesh": 0,
      "name": "Object_4"
    },
    {
      "mesh": 1,
      "name": "Object_5"
    },
    {
      "mesh": 2,
      "name": "Object_6"
    },
    {
      "mesh": 3,
      "name": "Object_7"
    }
  ],
  "samplers": [
    {
      "magFilter": 9729,
      "minFilter": 9987,
      "wrapS": 10497,
      "wrapT": 10497
    }
  ],
  "scene": 0,
  "scenes": [
    {
      "name": "Sketchfab_Scene",
      "nodes": [
        0
      ]
    }
  ],
  "textures": [
    {
      "sampler": 0,
      "source": 0
    },
    {
      "sampler": 0,
      "source": 1
    },
    {
      "sampler": 0,
      "source": 2
    },
    {
      "sampler": 0,
      "source": 3
    },
    {
      "sampler": 0,
      "source": 4
    },
    {
      "sampler": 0,
      "source": 5
    },
    {
      "sampler": 0,
      "source": 6
    },
    {
      "sampler": 0,
      "source": 7
    },
    {
      "sampler": 0,
      "source": 8
    },
    {
      "sampler": 0,
      "source": 9
    },
    {
      "sampler": 0,
      "source": 10
    },
    {
      "sampler": 0,
      "source": 11
    },
    {
      "sampler": 0,
      "source": 12
    }
  ]
}
