{
  "accessors": [
    {
      "bufferView": 2,
      "componentType": 5126,
      "count": 44,
      "max": [
        0.32879048585891724,
        0.5339012145996094,
        0.05000000074505806
      ],
      "min": [
        0.08074957877397537,
        0.0,
        -0.05000000074505806
      ],
      "type": "VEC3"
    },
    {
      "bufferView": 2,
      "byteOffset": 528,
      "componentType": 5126,
      "count": 44,
      "max": [
        0.7071067690849304,
        0.9718258380889893,
        1.0
      ],
      "min": [
        -0.8522518873214722,
        -0.8559000492095947,
        -1.0
      ],
      "type": "VEC3"
    },
    {
      "bufferView": 1,
      "componentType": 5126,
      "count": 44,
      "max": [
        0.9998584985733032,
        0.9746955633163452
      ],
      "min": [
        0.0001414244034094736,
        0.0001414244034094736
      ],
      "type": "VEC2"
    },
    {
      "bufferView": 0,
      "componentType": 5125,
      "count": 120,
      "type": "SCALAR"
    },
    {
      "bufferView": 2,
      "byteOffset": 1056,
      "componentType": 5126,
      "count": 24,
      "max": [
        1.0000004768371582,
        1.0000003576278687,
        1.0199499130249023
      ],
      "min": [
        -1.0000003576278687,
        -1.0000005960464478,
        -1.0
      ],
      "type": "VEC3"
    },
    {
      "bufferView": 2,
      "byteOffset": 1344,
      "componentType": 5126,
      "count": 24,
      "max": [
        1.0,
        1.0,
        1.0
      ],
      "min": [
        -1.0,
        -1.0,
        -1.0
      ],
      "type": "VEC3"
    },
    {
      "bufferView": 1,
      "byteOffset": 352,
      "componentType": 5126,
      "count": 24,
      "max": [
        0.49985018372535706,
        0.4998500645160675
      ],
      "min": [
        0.0,
        0.0
      ],
      "type": "VEC2"
    },
    {
      "bufferView": 0,
      "byteOffset": 480,
      "componentType": 5125,
      "count": 36,
      "type": "SCALAR"
    },
    {
      "bufferView": 2,
      "byteOffset": 1632,
      "componentType": 5126,
      "count": 24,
      "max": [
        -0.38661253452301025,
        1.4149266481399536,
        0.36168116331100464
      ],
      "min": [
        -3.2217307090759277,
        -1.4162259101867676,
        -1.0070070028305054
      ],
      "type": "VEC3"
    },
    {
      "bufferView": 2,
      "byteOffset": 1920,
      "componentType": 5126,
      "count": 24,
      "max": [
        0.7071390151977539,
        0.7071393132209778,
        0.9999856352806091
      ],
      "min": [
        -0.7071391344070435,
        -0.7071393132209778,
        -0.9999856352806091
      ],
      "type": "VEC3"
    },
    {
      "bufferView": 1,
      "byteOffset": 544,
      "componentType": 5126,
      "count": 24,
      "max": [
        0.9998500943183899,
        0.49985000491142273
      ],
      "min": [
        0.0,
        0.0
      ],
      "type": "VEC2"
    },
    {
      "bufferView": 0,
      "byteOffset": 624,
      "componentType": 5125,
      "count": 36,
      "type": "SCALAR"
    },
    {
      "bufferView": 2,
      "byteOffset": 2208,
      "componentType": 5126,
      "count": 24,
      "max": [
        3.1762495040893555,
        1.413585901260376,
        -0.29307544231414795
      ],
      "min": [
        0.34440183639526367,
        -1.4162945747375488,
        -1.0069658756256104
      ],
      "type": "VEC3"
    },
    {
      "bufferView": 2,
      "byteOffset": 2496,
      "componentType": 5126,
      "count": 24,
      "max": [
        0.7071011066436768,
        0.7071155309677124,
        0.9999856948852539
      ],
      "min": [
        -0.7071011662483215,
        -0.7071155905723572,
        -0.9999856948852539
      ],
      "type": "VEC3"
    },
    {
      "bufferView": 1,
      "byteOffset": 736,
      "componentType": 5126,
      "count": 24,
      "max": [
        0.4998500645160675,
        0.9998500943183899
      ],
      "min": [
        0.0,
        0.0
      ],
      "type": "VEC2"
    },
    {
      "bufferView": 0,
      "byteOffset": 768,
      "componentType": 5125,
      "count": 36,
      "type": "SCALAR"
    },
    {
      "bufferView": 2,
      "byteOffset": 2784,
      "componentType": 5126,
      "count": 72,
      "max": [
        1.9713512659072876,
        1.9681220054626465,
        0.03928488492965698
      ],
      "min": [
        -1.9819880723953247,
        -1.9849753379821777,
        -0.03928476572036743
      ],
      "type": "VEC3"
    },
    {
      "bufferView": 2,
      "byteOffset": 3648,
      "componentType": 5126,
      "count": 72,
      "max": [
        1.0,
        1.0,
        1.0
      ],
      "min": [
        -1.0,
        -1.0,
        -1.0
      ],
      "type": "VEC3"
    },
    {
      "bufferView": 1,
      "byteOffset": 928,
      "componentType": 5126,
      "count": 72,
      "max": [
        0.9998499751091003,
        0.9998499751091003
      ],
      "min": [
        0.0,
        0.0
      ],
      "type": "VEC2"
    },
    {
      "bufferView": 0,
      "byteOffset": 912,
      "componentType": 5125,
      "count": 108,
      "type": "SCALAR"
    },
    {
      "bufferView": 2,
      "byteOffset": 4512,
      "componentType": 5126,
      "count": 2041,
      "max": [
        0.36729133129119873,
        0.5478705763816833,
        0.05000000074505806
      ],
      "min": [
        0.04906303435564041,
        0.0,
        -0.05000000074505806
      ],
      "type": "VEC3"
    },
    {
      "bufferView": 2,
      "byteOffset": 29004,
      "componentType": 5126,
      "count": 2041,
      "max": [
        0.9999998807907104,
        1.0,
        1.0
      ],
      "min": [
        -0.9999990463256836,
        -0.9999788999557495,
        -1.0
      ],
      "type": "VEC3"
    },
    {
      "bufferView": 1,
      "byteOffset": 1504,
      "componentType": 5126,
      "count": 2041,
      "max": [
        0.998953640460968,
        0.9998507499694824
      ],
      "min": [
        0.00014923162234481424,
        0.00014923162234481424
      ],
      "type": "VEC2"
    },
    {
      "bufferView": 0,
      "byteOffset": 1344,
      "componentType": 5125,
      "count": 4080,
      "type": "SCALAR"
    },
    {
      "bufferView": 2,
      "byteOffset": 53496,
      "componentType": 5126,
      "count": 3283,
      "max": [
        0.3696763217449188,
        0.5478705763816833,
        0.05000000074505806
      ],
      "min": [
        0.03952299803495407,
        -0.008517887443304062,
        -0.05000000074505806
      ],
      "type": "VEC3"
    },
    {
      "bufferView": 2,
      "byteOffset": 92892,
      "componentType": 5126,
      "count": 3283,
      "max": [
        0.999998927116394,
        0.9999996423721313,
        1.0
      ],
      "min": [
        -1.0,
        -1.0,
        -1.0
      ],
      "type": "VEC3"
    },
    {
      "bufferView": 1,
      "byteOffset": 17832,
      "componentType": 5126,
      "count": 3283,
      "max": [
        0.9998764395713806,
        0.8717432618141174
      ],
      "min": [
        0.00012353841157164425,
        0.00012353841157164425
      ],
      "type": "VEC2"
    },
    {
      "bufferView": 0,
      "byteOffset": 17664,
      "componentType": 5125,
      "count": 6384,
      "type": "SCALAR"
    }
  ],
  "asset": {
    "extras": {
      "author": "digitallysavvy (https://sketchfab.com/hermes.frangoudis)",
      "license": "CC-BY-NC-SA-4.0 (http://creativecommons.org/licenses/by-nc-sa/4.0/)",
      "source": "https://sketchfab.com/3d-models/winner-podium-9e9b1e5ecfd8460bbb387f3dd6989c38",
      "title": "Winner Podium"
    },
    "generator": "Sketchfab-12.64.0",
    "version": "2.0"
  },
  "bufferViews": [
    {
      "buffer": 0,
      "byteLength": 43200,
      "name": "floatBufferViews",
      "target": 34963
    },
    {
      "buffer": 0,
      "byteLength": 44096,
      "byteOffset": 43200,
      "byteStride": 8,
      "name": "floatBufferViews",
      "target": 34962
    },
    {
      "buffer": 0,
      "byteLength": 132288,
      "byteOffset": 87296,
      "byteStride": 12,
      "name": "floatBufferViews",
      "target": 34962
    }
  ],
  "buffers": [
    {
      "byteLength": 219584,
      "uri": "scene.bin"
    }
  ],
  "images": [
    {
      "uri": "textures/Material.000_baseColor.jpeg"
    }
  ],
  "materials": [
    {
      "doubleSided": true,
      "name": "number_1__0",
      "pbrMetallicRoughness": {
        "baseColorFactor": [
          0.7076012526892669,
          0.7076012526892669,
          0.7076012526892669,
          1.0
        ],
        "metallicFactor": 0.5200076219512195,
        "roughnessFactor": 0.34584603658536583
      }
    },
    {
      "doubleSided": true,
      "name": "Material.000",
      "pbrMetallicRoughness": {
        "baseColorTexture": {
          "index": 0
        },
        "metallicFactor": 0.0,
        "roughnessFactor": 0.8239417257
      }
    },
    {
      "doubleSided": true,
      "name": "Material.001",
      "pbrMetallicRoughness": {
        "baseColorTexture": {
          "index": 0
        },
        "metallicFactor": 0.0,
        "roughnessFactor": 0.8239417257
      }
    },
    {
      "doubleSided": true,
      "name": "Material.002",
      "pbrMetallicRoughness": {
        "baseColorTexture": {
          "index": 0
        },
        "metallicFactor": 0.5931783536585366,
        "roughnessFactor": 0.3031631097560976
      }
    }
  ],
  "meshes": [
    {
      "name": "number_1__0",
      "primitives": [
        {
          "attributes": {
            "NORMAL": 1,
            "POSITION": 0,
            "TEXCOORD_0": 2
          },
          "indices": 3,
          "material": 0,
          "mode": 4
        }
      ]
    },
    {
      "name": "podium_rotated.001_Material.000_0",
      "primitives": [
        {
          "attributes": {
            "NORMAL": 5,
            "POSITION": 4,
            "TEXCOORD_0": 6
          },
          "indices": 7,
          "material": 1,
          "mode": 4
        }
      ]
    },
    {
      "name": "podium_rotated.001_Material.001_0",
      "primitives": [
        {
          "attributes": {
            "NORMAL": 9,
            "POSITION": 8,
            "TEXCOORD_0": 10
          },
          "indices": 11,
          "material": 2,
          "mode": 4
        }
      ]
    },
    {
      "name": "podium_rotated.001_Material.002_0",
      "primitives": [
        {
          "attributes": {
            "NORMAL": 13,
            "POSITION": 12,
            "TEXCOORD_0": 14
          },
          "indices": 15,
          "material": 3,
          "mode": 4
        }
      ]
    },
    {
      "name": "base__0",
      "primitives": [
        {
          "attributes": {
            "NORMAL": 17,
            "POSITION": 16,
            "TEXCOORD_0": 18
          },
          "indices": 19,
          "material": 0,
          "mode": 4
        }
      ]
    },
    {
      "name": "number_2.001__0",
      "primitives": [
        {
          "attributes": {
            "NORMAL": 21,
            "POSITION": 20,
            "TEXCOORD_0": 22
          },
          "indices": 23,
          "material": 0,
          "mode": 4
        }
      ]
    },
    {
      "name": "number_3.001__0",
      "primitives": [
        {
          "attributes": {
            "NORMAL": 25,
            "POSITION": 24,
            "TEXCOORD_0": 26
          },
          "indices": 27,
          "material": 0,
          "mode": 4
        }
      ]
    }
  ],
  "nodes": [
    {
      "children": [
        1
      ],
      "matrix": [
        0.0025175625924021006,
        0.0,
        0.0,
        0.0,
        0.0,
        5.59011191203962e-19,
        -0.0025175625924021006,
        0.0,
        0.0,
        0.0025175625924021006,
        5.59011191203962e-19,
        0.0,
        0.0,
        0.0,
        0.0,
        1.0
      ],
      "name": "Sketchfab_model"
    },
    {
      "children": [
        2
      ],
      "matrix": [
        1.0,
        0.0,
        0.0,
        0.0,
        0.0,
        0.0,
        1.0,
        0.0,
        0.0,
        -1.0,
        0.0,
        0.0,
        0.0,
        0.0,
        0.0,
        1.0
      ],
      "name": "438f1565dda54f4c86729c9ae8017a46.fbx"
    },
    {
      "children": [
        3,
        6,
        9,
        11,
        15,
        17,
        19,
        21,
        24
      ],
      "name": "RootNode"
    },
    {
      "children": [
        4
      ],
      "matrix": [
        100.0,
        0.0,
        0.0,
        0.0,
        0.0,
        99.99999999999972,
        -7.5497901264043296e-06,
        0.0,
        0.0,
        7.5497901264043296e-06,
        99.99999999999972,
        0.0,
        -16.717390060424805,
        2350.978759765625,
        51.47853088378906,
        1.0
      ],
      "name": "Spot"
    },
    {
      "children": [
        5
      ],
      "matrix": [
        1.0,
        0.0,
        0.0,
        0.0,
        0.0,
        2.220446049250313e-16,
        1.0,
        0.0,
        0.0,
        -1.0,
        2.220446049250313e-16,
        0.0,
        0.0,
        0.0,
        0.0,
        1.0
      ],
      "name": "Object_4"
    },
    {
      "name": "Object_5"
    },
    {
      "children": [
        7
      ],
      "matrix": [
        100.0,
        0.0,
        0.0,
        0.0,
        0.0,
        99.99999999999972,
        -7.5497901264043296e-06,
        0.0,
        0.0,
        7.5497901264043296e-06,
        99.99999999999972,
        0.0,
        2.586442232131958,
        524.3536376953125,
        -1278.2340087890625,
        1.0
      ],
      "name": "Point"
    },
    {
      "children": [
        8
      ],
      "matrix": [
        1.0,
        0.0,
        0.0,
        0.0,
        0.0,
        2.220446049250313e-16,
        1.0,
        0.0,
        0.0,
        -1.0,
        2.220446049250313e-16,
        0.0,
        0.0,
        0.0,
        0.0,
        1.0
      ],
      "name": "Object_7"
    },
    {
      "name": "Object_8"
    },
    {
      "children": [
        10
      ],
      "matrix": [
        408.6576843261719,
        0.0,
        0.0,
        0.0,
        0.0,
        408.6576843261715,
        1.7862994715940472e-05,
        0.0,
        0.0,
        -1.7862994715940472e-05,
        408.6576843261715,
        0.0,
        -73.07295989990234,
        29.054439544677734,
        177.3155975341797,
        1.0
      ],
      "name": "number_1"
    },
    {
      "mesh": 0,
      "name": "number_1__0"
    },
    {
      "children": [
        12,
        13,
        14
      ],
      "matrix": [
        144.46331787109375,
        0.0,
        0.0,
        0.0,
        0.0,
        -2.3536061894756694e-05,
        -144.46331787109185,
        0.0,
        0.0,
        144.46331787109185,
        -2.3536061894756694e-05,
        0.0,
        1.7727851867675781,
        163.63949584960938,
        34.34986877441406,
        1.0
      ],
      "name": "podium_rotated.001"
    },
    {
      "mesh": 1,
      "name": "podium_rotated.001_Material.000_0"
    },
    {
      "mesh": 2,
      "name": "podium_rotated.001_Material.001_0"
    },
    {
      "mesh": 3,
      "name": "podium_rotated.001_Material.002_0"
    },
    {
      "children": [
        16
      ],
      "matrix": [
        130.56648685152507,
        -1.0249438321988883e-14,
        -130.55032179655907,
        0.0,
        -130.55032179655734,
        -3.0081261472070255e-05,
        -130.56648685152334,
        0.0,
        -2.1269348882023635e-05,
        184.63748168945065,
        -2.127198250616643e-05,
        0.0,
        3.2213449478149414,
        12.30734634399414,
        33.99673843383789,
        1.0
      ],
      "name": "base"
    },
    {
      "mesh": 4,
      "name": "base__0"
    },
    {
      "children": [
        18
      ],
      "matrix": [
        178.38531185089101,
        -2.9651878749665507e-13,
        178.38531964836113,
        0.0,
        -7.797469876710085e-06,
        252.27490234374974,
        7.797469955212675e-06,
        0.0,
        -178.38531964836096,
        -1.1027289041314664e-05,
        178.38531185089084,
        0.0,
        -338.1107482910156,
        29.054439544677734,
        160.35203552246094,
        1.0
      ],
      "name": "number_2.001"
    },
    {
      "mesh": 5,
      "name": "number_2.001__0"
    },
    {
      "children": [
        20
      ],
      "matrix": [
        91.44661268918193,
        3.642464656264639e-13,
        -91.44661668644058,
        0.0,
        3.997259029018127e-06,
        129.32504272460923,
        3.997259369414662e-06,
        0.0,
        91.44661668644048,
        -5.652978171852436e-06,
        91.44661268918183,
        0.0,
        271.89141845703125,
        29.82266616821289,
        225.7830810546875,
        1.0
      ],
      "name": "number_3.001"
    },
    {
      "mesh": 6,
      "name": "number_3.001__0"
    },
    {
      "children": [
        22
      ],
      "matrix": [
        100.0,
        0.0,
        0.0,
        0.0,
        0.0,
        99.99999999999972,
        -7.5497901264043296e-06,
        0.0,
        0.0,
        7.5497901264043296e-06,
        99.99999999999972,
        0.0,
        661.3328247070313,
        524.3536376953125,
        489.34527587890625,
        1.0
      ],
      "name": "Point.001"
    },
    {
      "children": [
        23
      ],
      "matrix": [
        1.0,
        0.0,
        0.0,
        0.0,
        0.0,
        2.220446049250313e-16,
        1.0,
        0.0,
        0.0,
        -1.0,
        2.220446049250313e-16,
        0.0,
        0.0,
        0.0,
        0.0,
        1.0
      ],
      "name": "Object_22"
    },
    {
      "name": "Object_23"
    },
    {
      "children": [
        25
      ],
      "matrix": [
        100.0,
        0.0,
        0.0,
        0.0,
        0.0,
        99.99999999999972,
        -7.5497901264043296e-06,
        0.0,
        0.0,
        7.5497901264043296e-06,
        99.99999999999972,
        0.0,
        -665.4645385742188,
        524.3536376953125,
        489.34527587890625,
        1.0
      ],
      "name": "Point.002"
    },
    {
      "children": [
        26
      ],
      "matrix": [
        1.0,
        0.0,
        0.0,
        0.0,
        0.0,
        2.220446049250313e-16,
        1.0,
        0.0,
        0.0,
        -1.0,
        2.220446049250313e-16,
        0.0,
        0.0,
        0.0,
        0.0,
        1.0
      ],
      "name": "Object_25"
    },
    {
      "name": "Object_26"
    }
  ],
  "samplers": [
    {
      "magFilter": 9729,
      "minFilter": 9987,
      "wrapS": 10497,
      "wrapT": 10497
    }
  ],
  "scene": 0,
  "scenes": [
    {
      "name": "Sketchfab_Scene",
      "nodes": [
        0
      ]
    }
  ],
  "textures": [
    {
      "sampler": 0,
      "source": 0
    }
  ]
}
