{
  "accessors": [
    {
      "bufferView": 2,
      "componentType": 5126,
      "count": 121,
      "max": [
        0.06795382499694824,
        0.06795363873243332,
        3.2317445278167725
      ],
      "min": [
        -0.06795358657836914,
        -0.06795363873243332,
        -0.00223884591832757
      ],
      "type": "VEC3"
    },
    {
      "bufferView": 2,
      "byteOffset": 1452,
      "componentType": 5126,
      "count": 121,
      "max": [
        0.9670891761779785,
        0.9670891761779785,
        1.0
      ],
      "min": [
        -0.9670891761779785,
        -0.9670891761779785,
        -1.0
      ],
      "type": "VEC3"
    },
    {
      "bufferView": 3,
      "componentType": 5126,
      "count": 121,
      "max": [
        0.9999890327453613,
        0.999809205532074,
        0.9563985466957092,
        1.0
      ],
      "min": [
        -0.9999459981918335,
        -0.9951627254486084,
        -0.9563985466957092,
        1.0
      ],
      "type": "VEC4"
    },
    {
      "bufferView": 1,
      "componentType": 5126,
      "count": 121,
      "max": [
        0.983755350112915,
        0.9950765371322632
      ],
      "min": [
        0.03774922713637352,
        0.7824018597602844
      ],
      "type": "VEC2"
    },
    {
      "bufferView": 0,
      "componentType": 5125,
      "count": 432,
      "type": "SCALAR"
    },
    {
      "bufferView": 2,
      "byteOffset": 2904,
      "componentType": 5126,
      "count": 8,
      "max": [
        2.2600347995758057,
        -0.00405035400763154,
        1.4447354078292847
      ],
      "min": [
        -2.2600347995758057,
        -0.006424459628760815,
        -1.4447354078292847
      ],
      "type": "VEC3"
    },
    {
      "bufferView": 2,
      "byteOffset": 3000,
      "componentType": 5126,
      "count": 8,
      "max": [
        1.5102853012649575e-07,
        1.0,
        0.0
      ],
      "min": [
        0.0,
        -1.0,
        0.0
      ],
      "type": "VEC3"
    },
    {
      "bufferView": 3,
      "byteOffset": 1936,
      "componentType": 5126,
      "count": 8,
      "max": [
        1.0,
        0.0,
        1.1995734894298948e-07,
        1.0
      ],
      "min": [
        -1.0,
        -1.5102853012649575e-07,
        0.0,
        1.0
      ],
      "type": "VEC4"
    },
    {
      "bufferView": 1,
      "byteOffset": 968,
      "componentType": 5126,
      "count": 8,
      "max": [
        0.9968819618225098,
        0.63728928565979
      ],
      "min": [
        0.0031179487705230713,
        0.002021998167037964
      ],
      "type": "VEC2"
    },
    {
      "bufferView": 0,
      "byteOffset": 1728,
      "componentType": 5125,
      "count": 12,
      "type": "SCALAR"
    },
    {
      "bufferView": 2,
      "byteOffset": 3096,
      "componentType": 5126,
      "count": 121,
      "max": [
        0.06795358657836914,
        0.06795363128185272,
        3.2317447662353516
      ],
      "min": [
        -0.06795382499694824,
        -0.06795364618301392,
        -0.0022388696670532227
      ],
      "type": "VEC3"
    },
    {
      "bufferView": 2,
      "byteOffset": 4548,
      "componentType": 5126,
      "count": 121,
      "max": [
        0.9670891761779785,
        0.9670891761779785,
        1.0
      ],
      "min": [
        -0.9670891761779785,
        -0.9670891761779785,
        -1.0
      ],
      "type": "VEC3"
    },
    {
      "bufferView": 3,
      "byteOffset": 2064,
      "componentType": 5126,
      "count": 121,
      "max": [
        0.9999890327453613,
        0.9951631426811218,
        0.6604511737823486,
        1.0
      ],
      "min": [
        -0.9999459385871887,
        -0.9998092651367188,
        -0.9563984870910645,
        1.0
      ],
      "type": "VEC4"
    },
    {
      "bufferView": 1,
      "byteOffset": 1032,
      "componentType": 5126,
      "count": 121,
      "max": [
        0.983755350112915,
        0.9856480360031128
      ],
      "min": [
        0.037749167531728745,
        0.6497259140014648
      ],
      "type": "VEC2"
    },
    {
      "bufferView": 0,
      "byteOffset": 1776,
      "componentType": 5125,
      "count": 432,
      "type": "SCALAR"
    }
  ],
  "asset": {
    "extras": {
      "author": "Agustín Hönnun (https://sketchfab.com/Agustin_Honnun)",
      "license": "CC-BY-4.0 (http://creativecommons.org/licenses/by/4.0/)",
      "source": "https://sketchfab.com/3d-models/low-poly-metal-fence-agustin-honnun-5458243c794b4b6bba523c63306c79c8",
      "title": "Low Poly Metal Fence | Agustin Honnun"
    },
    "generator": "Sketchfab-12.67.0",
    "version": "2.0"
  },
  "bufferViews": [
    {
      "buffer": 0,
      "byteLength": 3504,
      "name": "floatBufferViews",
      "target": 34963
    },
    {
      "buffer": 0,
      "byteLength": 2000,
      "byteOffset": 3504,
      "byteStride": 8,
      "name": "floatBufferViews",
      "target": 34962
    },
    {
      "buffer": 0,
      "byteLength": 6000,
      "byteOffset": 5504,
      "byteStride": 12,
      "name": "floatBufferViews",
      "target": 34962
    },
    {
      "buffer": 0,
      "byteLength": 4000,
      "byteOffset": 11504,
      "byteStride": 16,
      "name": "floatBufferViews",
      "target": 34962
    }
  ],
  "buffers": [
    {
      "byteLength": 15504,
      "uri": "scene.bin"
    }
  ],
  "images": [
    {
      "uri": "textures/Fence_MAT_baseColor.png"
    },
    {
      "uri": "textures/Fence_MAT_metallicRoughness.png"
    },
    {
      "uri": "textures/Fence_MAT_normal.png"
    }
  ],
  "materials": [
    {
      "alphaMode": "BLEND",
      "name": "Fence_MAT",
      "normalTexture": {
        "index": 2
      },
      "occlusionTexture": {
        "index": 1
      },
      "pbrMetallicRoughness": {
        "baseColorTexture": {
          "index": 0
        },
        "metallicRoughnessTexture": {
          "index": 1
        }
      }
    }
  ],
  "meshes": [
    {
      "name": "Bar2_Fence_MAT_0",
      "primitives": [
        {
          "attributes": {
            "NORMAL": 1,
            "POSITION": 0,
            "TANGENT": 2,
            "TEXCOORD_0": 3
          },
          "indices": 4,
          "material": 0,
          "mode": 4
        }
      ]
    },
    {
      "name": "Fence_Fence_MAT_0",
      "primitives": [
        {
          "attributes": {
            "NORMAL": 6,
            "POSITION": 5,
            "TANGENT": 7,
            "TEXCOORD_0": 8
          },
          "indices": 9,
          "material": 0,
          "mode": 4
        }
      ]
    },
    {
      "name": "Bar1_Fence_MAT_0",
      "primitives": [
        {
          "attributes": {
            "NORMAL": 11,
            "POSITION": 10,
            "TANGENT": 12,
            "TEXCOORD_0": 13
          },
          "indices": 14,
          "material": 0,
          "mode": 4
        }
      ]
    }
  ],
  "nodes": [
    {
      "children": [
        1
      ],
      "matrix": [
        1.0,
        0.0,
        0.0,
        0.0,
        0.0,
        2.220446049250313e-16,
        -1.0,
        0.0,
        0.0,
        1.0,
        2.220446049250313e-16,
        0.0,
        0.0,
        0.0,
        0.0,
        1.0
      ],
      "name": "Sketchfab_model"
    },
    {
      "children": [
        2
      ],
      "matrix": [
        1.0,
        0.0,
        0.0,
        0.0,
        0.0,
        0.0,
        1.0,
        0.0,
        0.0,
        -1.0,
        0.0,
        0.0,
        0.0,
        0.0,
        0.0,
        1.0
      ],
      "name": "Fence.fbx"
    },
    {
      "children": [
        3,
        5,
        7
      ],
      "name": "RootNode"
    },
    {
      "children": [
        4
      ],
      "matrix": [
        100.0,
        0.0,
        0.0,
        0.0,
        0.0,
        -1.629206793918314e-05,
        -99.99999999999868,
        0.0,
        0.0,
        99.99999999999868,
        -1.629206793918314e-05,
        0.0,
        228.1186065673828,
        0.4878174662590027,
        -4.6566128730773926e-08,
        1.0
      ],
      "name": "Bar2"
    },
    {
      "mesh": 0,
      "name": "Bar2_Fence_MAT_0"
    },
    {
      "children": [
        6
      ],
      "matrix": [
        100.0,
        0.0,
        0.0,
        0.0,
        0.0,
        -1.629206793918314e-05,
        -99.99999999999868,
        0.0,
        0.0,
        99.99999999999868,
        -1.629206793918314e-05,
        0.0,
        0.3647666871547699,
        162.51380920410156,
        -0.0954429879784584,
        1.0
      ],
      "name": "Fence"
    },
    {
      "mesh": 1,
      "name": "Fence_Fence_MAT_0"
    },
    {
      "children": [
        8
      ],
      "matrix": [
        100.0,
        0.0,
        0.0,
        0.0,
        -0.0,
        -1.629206793918314e-05,
        -99.99999999999868,
        0.0,
        0.0,
        99.99999999999868,
        -1.629206793918314e-05,
        0.0,
        -228.1186065673828,
        0.48781633377075195,
        -4.6566128730773926e-08,
        1.0
      ],
      "name": "Bar1"
    },
    {
      "mesh": 2,
      "name": "Bar1_Fence_MAT_0"
    }
  ],
  "samplers": [
    {
      "magFilter": 9729,
      "minFilter": 9987,
      "wrapS": 10497,
      "wrapT": 10497
    }
  ],
  "scene": 0,
  "scenes": [
    {
      "name": "Sketchfab_Scene",
      "nodes": [
        0
      ]
    }
  ],
  "textures": [
    {
      "sampler": 0,
      "source": 0
    },
    {
      "sampler": 0,
      "source": 1
    },
    {
      "sampler": 0,
      "source": 2
    }
  ]
}
