{
	"asset":{
		"generator":"Khronos glTF Blender I/O v4.0.44",
		"version":"2.0"
	},
	"scene":0,
	"scenes":[
		{
			"name":"Scene",
			"nodes":[
				32
			]
		}
	],
	"nodes":[
		{
			"name":"01_person",
			"rotation":[
				-0.7576006650924683,
				0,
				0,
				0.6527183651924133
			],
			"scale":[
				100,
				100,
				100
			],
			"translation":[
				-127.28160858154297,
				0,
				0
			]
		},
		{
			"name":"01_person.001",
			"rotation":[
				-0.7576006650924683,
				0,
				0,
				0.6527183651924133
			],
			"scale":[
				100,
				100,
				100
			],
			"translation":[
				-127.28160858154297,
				0,
				-50
			]
		},
		{
			"name":"01_person.002",
			"rotation":[
				-0.7576006650924683,
				0,
				0,
				0.6527183651924133
			],
			"scale":[
				100,
				100,
				100
			],
			"translation":[
				-127.28160858154297,
				0,
				-100
			]
		},
		{
			"mesh":0,
			"name":"01_person.003_01_person_0"
		},
		{
			"children":[
				3
			],
			"name":"01_person.003",
			"rotation":[
				-0.7576006650924683,
				0,
				0,
				0.6527183651924133
			],
			"scale":[
				100,
				100,
				100
			],
			"translation":[
				-127.28160858154297,
				0,
				50
			]
		},
		{
			"name":"02_person",
			"rotation":[
				-0.7405889630317688,
				0,
				0,
				0.671958327293396
			],
			"scale":[
				100,
				100,
				100
			],
			"translation":[
				-76.36897277832031,
				0,
				0
			]
		},
		{
			"name":"02_person.001",
			"rotation":[
				-0.7405889630317688,
				0,
				0,
				0.671958327293396
			],
			"scale":[
				100,
				100,
				100
			],
			"translation":[
				-76.36897277832031,
				0,
				-50
			]
		},
		{
			"name":"02_person.002",
			"rotation":[
				-0.7405889630317688,
				0,
				0,
				0.671958327293396
			],
			"scale":[
				100,
				100,
				100
			],
			"translation":[
				-76.36897277832031,
				0,
				-100
			]
		},
		{
			"mesh":1,
			"name":"02_person.003_02_person_0"
		},
		{
			"children":[
				8
			],
			"name":"02_person.003",
			"rotation":[
				-0.7405889630317688,
				0,
				0,
				0.671958327293396
			],
			"scale":[
				100,
				100,
				100
			],
			"translation":[
				-76.36897277832031,
				0,
				50
			]
		},
		{
			"name":"03_person",
			"rotation":[
				-0.6557737588882446,
				0,
				0,
				0.7549574971199036
			],
			"scale":[
				100,
				100.00000762939453,
				100.00000762939453
			],
			"translation":[
				-25.456323623657227,
				0,
				0
			]
		},
		{
			"name":"03_person.001",
			"rotation":[
				-0.6557737588882446,
				0,
				0,
				0.7549574971199036
			],
			"scale":[
				100,
				100.00000762939453,
				100.00000762939453
			],
			"translation":[
				-25.456323623657227,
				0,
				-50
			]
		},
		{
			"name":"03_person.002",
			"rotation":[
				-0.6557737588882446,
				0,
				0,
				0.7549574971199036
			],
			"scale":[
				100,
				100.00000762939453,
				100.00000762939453
			],
			"translation":[
				-25.456323623657227,
				0,
				-100
			]
		},
		{
			"mesh":2,
			"name":"03_person.003_03_person_0"
		},
		{
			"children":[
				13
			],
			"name":"03_person.003",
			"rotation":[
				-0.6557737588882446,
				0,
				0,
				0.7549574971199036
			],
			"scale":[
				100,
				100.00000762939453,
				100.00000762939453
			],
			"translation":[
				-25.456323623657227,
				0,
				50
			]
		},
		{
			"name":"04_person",
			"rotation":[
				-0.6855659484863281,
				0,
				0,
				0.7280105352401733
			],
			"scale":[
				100,
				100.00001525878906,
				100.00001525878906
			],
			"translation":[
				25.456323623657227,
				0,
				0
			]
		},
		{
			"name":"04_person.001",
			"rotation":[
				-0.6855659484863281,
				0,
				0,
				0.7280105352401733
			],
			"scale":[
				100,
				100.00001525878906,
				100.00001525878906
			],
			"translation":[
				25.456323623657227,
				0,
				-50
			]
		},
		{
			"name":"04_person.002",
			"rotation":[
				-0.6855659484863281,
				0,
				0,
				0.7280105352401733
			],
			"scale":[
				100,
				100.00001525878906,
				100.00001525878906
			],
			"translation":[
				25.456323623657227,
				0,
				-100
			]
		},
		{
			"mesh":3,
			"name":"04_person.003_04_person_0"
		},
		{
			"children":[
				18
			],
			"name":"04_person.003",
			"rotation":[
				-0.6855659484863281,
				0,
				0,
				0.7280105352401733
			],
			"scale":[
				100,
				100.00001525878906,
				100.00001525878906
			],
			"translation":[
				25.456323623657227,
				0,
				50
			]
		},
		{
			"name":"05_person",
			"rotation":[
				-0.70710688829422,
				0,
				0,
				0.7071066498756409
			],
			"scale":[
				100,
				100.00001525878906,
				100.00001525878906
			],
			"translation":[
				76.36897277832031,
				0,
				0
			]
		},
		{
			"name":"05_person.001",
			"rotation":[
				-0.70710688829422,
				0,
				0,
				0.7071066498756409
			],
			"scale":[
				100,
				100.00001525878906,
				100.00001525878906
			],
			"translation":[
				76.36897277832031,
				0,
				-50
			]
		},
		{
			"name":"05_person.002",
			"rotation":[
				-0.70710688829422,
				0,
				0,
				0.7071066498756409
			],
			"scale":[
				100,
				100.00001525878906,
				100.00001525878906
			],
			"translation":[
				76.36897277832031,
				0,
				-100
			]
		},
		{
			"mesh":4,
			"name":"05_person.003_05_person_0"
		},
		{
			"children":[
				23
			],
			"name":"05_person.003",
			"rotation":[
				-0.70710688829422,
				0,
				0,
				0.7071066498756409
			],
			"scale":[
				100,
				100.00001525878906,
				100.00001525878906
			],
			"translation":[
				76.36897277832031,
				0,
				50
			]
		},
		{
			"name":"06_person",
			"rotation":[
				-0.7154930233955383,
				0,
				0,
				0.6986198425292969
			],
			"scale":[
				100,
				100.00000762939453,
				100.00000762939453
			],
			"translation":[
				127.2816162109375,
				0,
				0
			]
		},
		{
			"name":"06_person.001",
			"rotation":[
				-0.7154930233955383,
				0,
				0,
				0.6986198425292969
			],
			"scale":[
				100,
				100.00000762939453,
				100.00000762939453
			],
			"translation":[
				127.2816162109375,
				0,
				-50
			]
		},
		{
			"name":"06_person.002",
			"rotation":[
				-0.7154930233955383,
				0,
				0,
				0.6986198425292969
			],
			"scale":[
				100,
				100.00000762939453,
				100.00000762939453
			],
			"translation":[
				127.2816162109375,
				0,
				-100
			]
		},
		{
			"mesh":5,
			"name":"06_person.003_06_person_0"
		},
		{
			"children":[
				28
			],
			"name":"06_person.003",
			"rotation":[
				-0.7154930233955383,
				0,
				0,
				0.6986198425292969
			],
			"scale":[
				100,
				100.00000762939453,
				100.00000762939453
			],
			"translation":[
				127.2816162109375,
				0,
				50
			]
		},
		{
			"children":[
				0,
				1,
				2,
				4,
				5,
				6,
				7,
				9,
				10,
				11,
				12,
				14,
				15,
				16,
				17,
				19,
				20,
				21,
				22,
				24,
				25,
				26,
				27,
				29
			],
			"name":"RootNode"
		},
		{
			"children":[
				30
			],
			"name":"ea8dc923b3ee4a23b04198ca547fe3da.fbx",
			"rotation":[
				0.70710688829422,
				0,
				0,
				0.7071066498756409
			]
		},
		{
			"children":[
				31
			],
			"name":"Sketchfab_model",
			"rotation":[
				-0.70710688829422,
				0,
				0,
				0.7071066498756409
			]
		}
	],
	"materials":[
		{
			"doubleSided":true,
			"name":"01_person",
			"normalTexture":{
				"index":0
			},
			"pbrMetallicRoughness":{
				"baseColorTexture":{
					"index":1
				},
				"metallicFactor":0
			}
		},
		{
			"doubleSided":true,
			"name":"02_person",
			"normalTexture":{
				"index":2
			},
			"pbrMetallicRoughness":{
				"baseColorTexture":{
					"index":3
				},
				"metallicFactor":0
			}
		},
		{
			"doubleSided":true,
			"name":"03_person",
			"normalTexture":{
				"index":4
			},
			"pbrMetallicRoughness":{
				"baseColorTexture":{
					"index":5
				},
				"metallicFactor":0
			}
		},
		{
			"doubleSided":true,
			"name":"04_person",
			"normalTexture":{
				"index":6
			},
			"pbrMetallicRoughness":{
				"baseColorTexture":{
					"index":7
				},
				"metallicFactor":0
			}
		},
		{
			"doubleSided":true,
			"name":"05_person",
			"normalTexture":{
				"index":8
			},
			"pbrMetallicRoughness":{
				"baseColorTexture":{
					"index":9
				},
				"metallicFactor":0
			}
		},
		{
			"doubleSided":true,
			"name":"06_person",
			"normalTexture":{
				"index":10
			},
			"pbrMetallicRoughness":{
				"baseColorTexture":{
					"index":11
				},
				"metallicFactor":0
			}
		}
	],
	"meshes":[
		{
			"name":"01_person.003_01_person_0",
			"primitives":[
				{
					"attributes":{
						"POSITION":0,
						"NORMAL":1,
						"TEXCOORD_0":2
					},
					"indices":3,
					"material":0
				}
			]
		},
		{
			"name":"02_person.003_02_person_0",
			"primitives":[
				{
					"attributes":{
						"POSITION":4,
						"NORMAL":5,
						"TEXCOORD_0":6
					},
					"indices":7,
					"material":1
				}
			]
		},
		{
			"name":"03_person.003_03_person_0",
			"primitives":[
				{
					"attributes":{
						"POSITION":8,
						"NORMAL":9,
						"TEXCOORD_0":10
					},
					"indices":11,
					"material":2
				}
			]
		},
		{
			"name":"04_person.003_04_person_0",
			"primitives":[
				{
					"attributes":{
						"POSITION":12,
						"NORMAL":13,
						"TEXCOORD_0":14
					},
					"indices":15,
					"material":3
				}
			]
		},
		{
			"name":"05_person.003_05_person_0",
			"primitives":[
				{
					"attributes":{
						"POSITION":16,
						"NORMAL":17,
						"TEXCOORD_0":18
					},
					"indices":19,
					"material":4
				}
			]
		},
		{
			"name":"06_person.003_06_person_0",
			"primitives":[
				{
					"attributes":{
						"POSITION":20,
						"NORMAL":21,
						"TEXCOORD_0":22
					},
					"indices":23,
					"material":5
				}
			]
		}
	],
	"textures":[
		{
			"sampler":0,
			"source":0
		},
		{
			"sampler":0,
			"source":1
		},
		{
			"sampler":0,
			"source":2
		},
		{
			"sampler":0,
			"source":3
		},
		{
			"sampler":0,
			"source":4
		},
		{
			"sampler":0,
			"source":5
		},
		{
			"sampler":0,
			"source":6
		},
		{
			"sampler":0,
			"source":7
		},
		{
			"sampler":0,
			"source":8
		},
		{
			"sampler":0,
			"source":9
		},
		{
			"sampler":0,
			"source":10
		},
		{
			"sampler":0,
			"source":11
		}
	],
	"images":[
		{
			"mimeType":"image/jpeg",
			"name":"01_person_normal",
			"uri":"01_person_normal.jpg"
		},
		{
			"mimeType":"image/jpeg",
			"name":"01_person_baseColor",
			"uri":"01_person_baseColor.jpg"
		},
		{
			"mimeType":"image/jpeg",
			"name":"02_person_normal",
			"uri":"02_person_normal.jpg"
		},
		{
			"mimeType":"image/jpeg",
			"name":"02_person_baseColor",
			"uri":"02_person_baseColor.jpg"
		},
		{
			"mimeType":"image/jpeg",
			"name":"03_person_normal",
			"uri":"03_person_normal.jpg"
		},
		{
			"mimeType":"image/jpeg",
			"name":"03_person_baseColor",
			"uri":"03_person_baseColor.jpg"
		},
		{
			"mimeType":"image/jpeg",
			"name":"04_person_normal",
			"uri":"04_person_normal.jpg"
		},
		{
			"mimeType":"image/jpeg",
			"name":"04_person_baseColor",
			"uri":"04_person_baseColor.jpg"
		},
		{
			"mimeType":"image/jpeg",
			"name":"05_person_normal",
			"uri":"05_person_normal.jpg"
		},
		{
			"mimeType":"image/jpeg",
			"name":"05_person_baseColor",
			"uri":"05_person_baseColor.jpg"
		},
		{
			"mimeType":"image/jpeg",
			"name":"06_person_normal",
			"uri":"06_person_normal.jpg"
		},
		{
			"mimeType":"image/jpeg",
			"name":"06_person_baseColor",
			"uri":"06_person_baseColor.jpg"
		}
	],
	"accessors":[
		{
			"bufferView":0,
			"componentType":5126,
			"count":1646,
			"max":[
				0.24875880777835846,
				0.046495918184518814,
				0.9855479598045349
			],
			"min":[
				-0.26709482073783875,
				-0.2641533613204956,
				-0.010011600330471992
			],
			"type":"VEC3"
		},
		{
			"bufferView":1,
			"componentType":5126,
			"count":1646,
			"type":"VEC3"
		},
		{
			"bufferView":2,
			"componentType":5126,
			"count":1646,
			"type":"VEC2"
		},
		{
			"bufferView":3,
			"componentType":5123,
			"count":4500,
			"type":"SCALAR"
		},
		{
			"bufferView":4,
			"componentType":5126,
			"count":1554,
			"max":[
				0.16048799455165863,
				0.08114703744649887,
				0.9887624382972717
			],
			"min":[
				-0.1342255026102066,
				-0.19066737592220306,
				-0.009565349668264389
			],
			"type":"VEC3"
		},
		{
			"bufferView":5,
			"componentType":5126,
			"count":1554,
			"type":"VEC3"
		},
		{
			"bufferView":6,
			"componentType":5126,
			"count":1554,
			"type":"VEC2"
		},
		{
			"bufferView":7,
			"componentType":5123,
			"count":4500,
			"type":"SCALAR"
		},
		{
			"bufferView":8,
			"componentType":5126,
			"count":1502,
			"max":[
				0.15753580629825592,
				0.25004568696022034,
				0.9872767329216003
			],
			"min":[
				-0.18393062055110931,
				-0.08417107164859772,
				-0.011509384959936142
			],
			"type":"VEC3"
		},
		{
			"bufferView":9,
			"componentType":5126,
			"count":1502,
			"type":"VEC3"
		},
		{
			"bufferView":10,
			"componentType":5126,
			"count":1502,
			"type":"VEC2"
		},
		{
			"bufferView":11,
			"componentType":5123,
			"count":4500,
			"type":"SCALAR"
		},
		{
			"bufferView":12,
			"componentType":5126,
			"count":1887,
			"max":[
				0.1892201155424118,
				0.1673116683959961,
				0.987339973449707
			],
			"min":[
				-0.24202775955200195,
				-0.09483154118061066,
				-0.011718327179551125
			],
			"type":"VEC3"
		},
		{
			"bufferView":13,
			"componentType":5126,
			"count":1887,
			"type":"VEC3"
		},
		{
			"bufferView":14,
			"componentType":5126,
			"count":1887,
			"type":"VEC2"
		},
		{
			"bufferView":15,
			"componentType":5123,
			"count":4500,
			"type":"SCALAR"
		},
		{
			"bufferView":16,
			"componentType":5126,
			"count":1571,
			"max":[
				0.17290917038917542,
				0.10418619215488434,
				0.9992834329605103
			],
			"min":[
				-0.16384080052375793,
				-0.1084493100643158,
				-9.119510650634766e-06
			],
			"type":"VEC3"
		},
		{
			"bufferView":17,
			"componentType":5126,
			"count":1571,
			"type":"VEC3"
		},
		{
			"bufferView":18,
			"componentType":5126,
			"count":1571,
			"type":"VEC2"
		},
		{
			"bufferView":19,
			"componentType":5123,
			"count":4500,
			"type":"SCALAR"
		},
		{
			"bufferView":20,
			"componentType":5126,
			"count":1716,
			"max":[
				0.14795620739459991,
				0.08030404895544052,
				0.9952164888381958
			],
			"min":[
				-0.14845700562000275,
				-0.1032315120100975,
				-0.002472996711730957
			],
			"type":"VEC3"
		},
		{
			"bufferView":21,
			"componentType":5126,
			"count":1716,
			"type":"VEC3"
		},
		{
			"bufferView":22,
			"componentType":5126,
			"count":1716,
			"type":"VEC2"
		},
		{
			"bufferView":23,
			"componentType":5123,
			"count":4500,
			"type":"SCALAR"
		}
	],
	"bufferViews":[
		{
			"buffer":0,
			"byteLength":19752,
			"byteOffset":0,
			"target":34962
		},
		{
			"buffer":0,
			"byteLength":19752,
			"byteOffset":19752,
			"target":34962
		},
		{
			"buffer":0,
			"byteLength":13168,
			"byteOffset":39504,
			"target":34962
		},
		{
			"buffer":0,
			"byteLength":9000,
			"byteOffset":52672,
			"target":34963
		},
		{
			"buffer":0,
			"byteLength":18648,
			"byteOffset":61672,
			"target":34962
		},
		{
			"buffer":0,
			"byteLength":18648,
			"byteOffset":80320,
			"target":34962
		},
		{
			"buffer":0,
			"byteLength":12432,
			"byteOffset":98968,
			"target":34962
		},
		{
			"buffer":0,
			"byteLength":9000,
			"byteOffset":111400,
			"target":34963
		},
		{
			"buffer":0,
			"byteLength":18024,
			"byteOffset":120400,
			"target":34962
		},
		{
			"buffer":0,
			"byteLength":18024,
			"byteOffset":138424,
			"target":34962
		},
		{
			"buffer":0,
			"byteLength":12016,
			"byteOffset":156448,
			"target":34962
		},
		{
			"buffer":0,
			"byteLength":9000,
			"byteOffset":168464,
			"target":34963
		},
		{
			"buffer":0,
			"byteLength":22644,
			"byteOffset":177464,
			"target":34962
		},
		{
			"buffer":0,
			"byteLength":22644,
			"byteOffset":200108,
			"target":34962
		},
		{
			"buffer":0,
			"byteLength":15096,
			"byteOffset":222752,
			"target":34962
		},
		{
			"buffer":0,
			"byteLength":9000,
			"byteOffset":237848,
			"target":34963
		},
		{
			"buffer":0,
			"byteLength":18852,
			"byteOffset":246848,
			"target":34962
		},
		{
			"buffer":0,
			"byteLength":18852,
			"byteOffset":265700,
			"target":34962
		},
		{
			"buffer":0,
			"byteLength":12568,
			"byteOffset":284552,
			"target":34962
		},
		{
			"buffer":0,
			"byteLength":9000,
			"byteOffset":297120,
			"target":34963
		},
		{
			"buffer":0,
			"byteLength":20592,
			"byteOffset":306120,
			"target":34962
		},
		{
			"buffer":0,
			"byteLength":20592,
			"byteOffset":326712,
			"target":34962
		},
		{
			"buffer":0,
			"byteLength":13728,
			"byteOffset":347304,
			"target":34962
		},
		{
			"buffer":0,
			"byteLength":9000,
			"byteOffset":361032,
			"target":34963
		}
	],
	"samplers":[
		{
			"magFilter":9729,
			"minFilter":9987
		}
	],
	"buffers":[
		{
			"byteLength":370032,
			"uri":"scene_improved2.bin"
		}
	]
}
