{
	"asset":{
		"generator":"Khronos glTF Blender I/O v4.0.44",
		"version":"2.0"
	},
	"scene":0,
	"scenes":[
		{
			"name":"Scene",
			"nodes":[
				25,
				53
			]
		}
	],
	"nodes":[
		{
			"name":"01_person",
			"rotation":[
				-0.7576006650924683,
				0,
				0,
				0.6527183651924133
			],
			"scale":[
				100,
				100,
				100
			],
			"translation":[
				-127.28160858154297,
				0,
				0
			]
		},
		{
			"name":"01_person.002",
			"rotation":[
				-0.7576006650924683,
				0,
				0,
				0.6527183651924133
			],
			"scale":[
				100,
				100,
				100
			],
			"translation":[
				-127.28160858154297,
				0,
				-100
			]
		},
		{
			"name":"01_person.003",
			"rotation":[
				-0.7576006650924683,
				0,
				0,
				0.6527183651924133
			],
			"scale":[
				100,
				100,
				100
			],
			"translation":[
				-127.28160858154297,
				0,
				50
			]
		},
		{
			"name":"02_person",
			"rotation":[
				-0.7405889630317688,
				0,
				0,
				0.671958327293396
			],
			"scale":[
				100,
				100,
				100
			],
			"translation":[
				-76.36897277832031,
				0,
				0
			]
		},
		{
			"name":"02_person.001",
			"rotation":[
				-0.7405889630317688,
				0,
				0,
				0.671958327293396
			],
			"scale":[
				100,
				100,
				100
			],
			"translation":[
				-76.36897277832031,
				0,
				-50
			]
		},
		{
			"name":"02_person.002",
			"rotation":[
				-0.7405889630317688,
				0,
				0,
				0.671958327293396
			],
			"scale":[
				100,
				100,
				100
			],
			"translation":[
				-76.36897277832031,
				0,
				-100
			]
		},
		{
			"mesh":0,
			"name":"02_person.003_02_person_0"
		},
		{
			"children":[
				6
			],
			"name":"02_person.003",
			"rotation":[
				-0.7405889630317688,
				0,
				0,
				0.671958327293396
			],
			"scale":[
				100,
				100,
				100
			],
			"translation":[
				-76.36897277832031,
				0,
				50
			]
		},
		{
			"name":"03_person",
			"rotation":[
				-0.6557737588882446,
				0,
				0,
				0.7549574971199036
			],
			"scale":[
				100,
				100.00000762939453,
				100.00000762939453
			],
			"translation":[
				-25.456323623657227,
				0,
				0
			]
		},
		{
			"name":"03_person.001",
			"rotation":[
				-0.6557737588882446,
				0,
				0,
				0.7549574971199036
			],
			"scale":[
				100,
				100.00000762939453,
				100.00000762939453
			],
			"translation":[
				-25.456323623657227,
				0,
				-50
			]
		},
		{
			"name":"03_person.002",
			"rotation":[
				-0.6557737588882446,
				0,
				0,
				0.7549574971199036
			],
			"scale":[
				100,
				100.00000762939453,
				100.00000762939453
			],
			"translation":[
				-25.456323623657227,
				0,
				-100
			]
		},
		{
			"name":"03_person.003",
			"rotation":[
				-0.6557737588882446,
				0,
				0,
				0.7549574971199036
			],
			"scale":[
				100,
				100.00000762939453,
				100.00000762939453
			],
			"translation":[
				-25.456323623657227,
				0,
				50
			]
		},
		{
			"name":"04_person",
			"rotation":[
				-0.6855659484863281,
				0,
				0,
				0.7280105352401733
			],
			"scale":[
				100,
				100.00001525878906,
				100.00001525878906
			],
			"translation":[
				25.456323623657227,
				0,
				0
			]
		},
		{
			"name":"04_person.001",
			"rotation":[
				-0.6855659484863281,
				0,
				0,
				0.7280105352401733
			],
			"scale":[
				100,
				100.00001525878906,
				100.00001525878906
			],
			"translation":[
				25.456323623657227,
				0,
				-50
			]
		},
		{
			"name":"04_person.002",
			"rotation":[
				-0.6855659484863281,
				0,
				0,
				0.7280105352401733
			],
			"scale":[
				100,
				100.00001525878906,
				100.00001525878906
			],
			"translation":[
				25.456323623657227,
				0,
				-100
			]
		},
		{
			"name":"04_person.003",
			"rotation":[
				-0.6855659484863281,
				0,
				0,
				0.7280105352401733
			],
			"scale":[
				100,
				100.00001525878906,
				100.00001525878906
			],
			"translation":[
				25.456323623657227,
				0,
				50
			]
		},
		{
			"name":"05_person.001",
			"rotation":[
				-0.7071069478988647,
				0,
				0,
				0.7071066498756409
			],
			"scale":[
				100,
				100.00000762939453,
				100.00000762939453
			],
			"translation":[
				76.36897277832031,
				0,
				-50
			]
		},
		{
			"name":"05_person.002",
			"rotation":[
				-0.7071069478988647,
				0,
				0,
				0.7071066498756409
			],
			"scale":[
				100,
				100.00000762939453,
				100.00000762939453
			],
			"translation":[
				76.36897277832031,
				0,
				-100
			]
		},
		{
			"name":"05_person.003",
			"rotation":[
				-0.7071069478988647,
				0,
				0,
				0.7071066498756409
			],
			"scale":[
				100,
				100.00000762939453,
				100.00000762939453
			],
			"translation":[
				76.36897277832031,
				0,
				50
			]
		},
		{
			"name":"06_person",
			"rotation":[
				-0.7154930233955383,
				0,
				0,
				0.6986198425292969
			],
			"scale":[
				100,
				100.00000762939453,
				100.00000762939453
			],
			"translation":[
				127.2816162109375,
				0,
				0
			]
		},
		{
			"name":"06_person.001",
			"rotation":[
				-0.7154930233955383,
				0,
				0,
				0.6986198425292969
			],
			"scale":[
				100,
				100.00000762939453,
				100.00000762939453
			],
			"translation":[
				127.2816162109375,
				0,
				-50
			]
		},
		{
			"name":"06_person.002",
			"rotation":[
				-0.7154930233955383,
				0,
				0,
				0.6986198425292969
			],
			"scale":[
				100,
				100.00000762939453,
				100.00000762939453
			],
			"translation":[
				127.2816162109375,
				0,
				-100
			]
		},
		{
			"name":"06_person.003",
			"rotation":[
				-0.7154930233955383,
				0,
				0,
				0.6986198425292969
			],
			"scale":[
				100,
				100.00000762939453,
				100.00000762939453
			],
			"translation":[
				127.2816162109375,
				0,
				50
			]
		},
		{
			"children":[
				0,
				1,
				2,
				3,
				4,
				5,
				7,
				8,
				9,
				10,
				11,
				12,
				13,
				14,
				15,
				16,
				17,
				18,
				19,
				20,
				21,
				22
			],
			"name":"RootNode"
		},
		{
			"children":[
				23
			],
			"name":"ea8dc923b3ee4a23b04198ca547fe3da.fbx",
			"rotation":[
				0.70710688829422,
				0,
				0,
				0.7071066498756409
			]
		},
		{
			"children":[
				24
			],
			"name":"Sketchfab_model",
			"rotation":[
				-0.70710688829422,
				0,
				0,
				0.7071066498756409
			]
		},
		{
			"name":"01_person.004",
			"rotation":[
				-0.7576006650924683,
				0,
				0,
				0.6527183651924133
			],
			"scale":[
				100,
				100,
				100
			],
			"translation":[
				-127.28160858154297,
				0,
				50
			]
		},
		{
			"name":"01_person.005",
			"rotation":[
				-0.7576006650924683,
				0,
				0,
				0.6527183651924133
			],
			"scale":[
				100,
				100,
				100
			],
			"translation":[
				-127.28160858154297,
				0,
				-100
			]
		},
		{
			"name":"01_person.006",
			"rotation":[
				-0.7576006650924683,
				0,
				0,
				0.6527183651924133
			],
			"scale":[
				100,
				100,
				100
			],
			"translation":[
				-127.28160858154297,
				0,
				-50
			]
		},
		{
			"name":"01_person.007",
			"rotation":[
				-0.7576006650924683,
				0,
				0,
				0.6527183651924133
			],
			"scale":[
				100,
				100,
				100
			],
			"translation":[
				-127.28160858154297,
				0,
				0
			]
		},
		{
			"mesh":1,
			"name":"02_person.003_02_person_0.001"
		},
		{
			"children":[
				30
			],
			"name":"02_person.004",
			"rotation":[
				-0.7405889630317688,
				0,
				0,
				0.671958327293396
			],
			"scale":[
				100,
				100,
				100
			],
			"translation":[
				-76.36897277832031,
				0,
				50
			]
		},
		{
			"name":"02_person.005",
			"rotation":[
				-0.7405889630317688,
				0,
				0,
				0.671958327293396
			],
			"scale":[
				100,
				100,
				100
			],
			"translation":[
				-76.36897277832031,
				0,
				-100
			]
		},
		{
			"name":"02_person.006",
			"rotation":[
				-0.7405889630317688,
				0,
				0,
				0.671958327293396
			],
			"scale":[
				100,
				100,
				100
			],
			"translation":[
				-76.36897277832031,
				0,
				-50
			]
		},
		{
			"name":"02_person.007",
			"rotation":[
				-0.7405889630317688,
				0,
				0,
				0.671958327293396
			],
			"scale":[
				100,
				100,
				100
			],
			"translation":[
				-76.36897277832031,
				0,
				0
			]
		},
		{
			"name":"03_person.004",
			"rotation":[
				-0.6557737588882446,
				0,
				0,
				0.7549574971199036
			],
			"scale":[
				100,
				100.00000762939453,
				100.00000762939453
			],
			"translation":[
				-25.456323623657227,
				0,
				50
			]
		},
		{
			"name":"03_person.005",
			"rotation":[
				-0.6557737588882446,
				0,
				0,
				0.7549574971199036
			],
			"scale":[
				100,
				100.00000762939453,
				100.00000762939453
			],
			"translation":[
				-25.456323623657227,
				0,
				-100
			]
		},
		{
			"name":"03_person.006",
			"rotation":[
				-0.6557737588882446,
				0,
				0,
				0.7549574971199036
			],
			"scale":[
				100,
				100.00000762939453,
				100.00000762939453
			],
			"translation":[
				-25.456323623657227,
				0,
				-50
			]
		},
		{
			"name":"03_person.007",
			"rotation":[
				-0.6557737588882446,
				0,
				0,
				0.7549574971199036
			],
			"scale":[
				100,
				100.00000762939453,
				100.00000762939453
			],
			"translation":[
				-25.456323623657227,
				0,
				0
			]
		},
		{
			"name":"04_person.004",
			"rotation":[
				-0.6855659484863281,
				0,
				0,
				0.7280105352401733
			],
			"scale":[
				100,
				100.00001525878906,
				100.00001525878906
			],
			"translation":[
				25.456323623657227,
				0,
				50
			]
		},
		{
			"name":"04_person.005",
			"rotation":[
				-0.6855659484863281,
				0,
				0,
				0.7280105352401733
			],
			"scale":[
				100,
				100.00001525878906,
				100.00001525878906
			],
			"translation":[
				25.456323623657227,
				0,
				-100
			]
		},
		{
			"name":"04_person.006",
			"rotation":[
				-0.6855659484863281,
				0,
				0,
				0.7280105352401733
			],
			"scale":[
				100,
				100.00001525878906,
				100.00001525878906
			],
			"translation":[
				25.456323623657227,
				0,
				-50
			]
		},
		{
			"name":"04_person.007",
			"rotation":[
				-0.6855659484863281,
				0,
				0,
				0.7280105352401733
			],
			"scale":[
				100,
				100.00001525878906,
				100.00001525878906
			],
			"translation":[
				25.456323623657227,
				0,
				0
			]
		},
		{
			"name":"05_person.004",
			"rotation":[
				-0.70710688829422,
				0,
				0,
				0.7071066498756409
			],
			"scale":[
				100,
				100.00001525878906,
				100.00001525878906
			],
			"translation":[
				76.36897277832031,
				0,
				50
			]
		},
		{
			"name":"05_person.005",
			"rotation":[
				-0.70710688829422,
				0,
				0,
				0.7071066498756409
			],
			"scale":[
				100,
				100.00001525878906,
				100.00001525878906
			],
			"translation":[
				76.36897277832031,
				0,
				-100
			]
		},
		{
			"name":"05_person.006",
			"rotation":[
				-0.70710688829422,
				0,
				0,
				0.7071066498756409
			],
			"scale":[
				100,
				100.00001525878906,
				100.00001525878906
			],
			"translation":[
				76.36897277832031,
				0,
				-50
			]
		},
		{
			"name":"05_person.007",
			"rotation":[
				-0.70710688829422,
				0,
				0,
				0.7071066498756409
			],
			"scale":[
				100,
				100.00001525878906,
				100.00001525878906
			],
			"translation":[
				76.36897277832031,
				0,
				0
			]
		},
		{
			"name":"06_person.004",
			"rotation":[
				-0.7154930233955383,
				0,
				0,
				0.6986198425292969
			],
			"scale":[
				100,
				100.00000762939453,
				100.00000762939453
			],
			"translation":[
				127.2816162109375,
				0,
				50
			]
		},
		{
			"name":"06_person.005",
			"rotation":[
				-0.7154930233955383,
				0,
				0,
				0.6986198425292969
			],
			"scale":[
				100,
				100.00000762939453,
				100.00000762939453
			],
			"translation":[
				127.2816162109375,
				0,
				-100
			]
		},
		{
			"name":"06_person.006",
			"rotation":[
				-0.7154930233955383,
				0,
				0,
				0.6986198425292969
			],
			"scale":[
				100,
				100.00000762939453,
				100.00000762939453
			],
			"translation":[
				127.2816162109375,
				0,
				-50
			]
		},
		{
			"name":"06_person.007",
			"rotation":[
				-0.7154930233955383,
				0,
				0,
				0.6986198425292969
			],
			"scale":[
				100,
				100.00000762939453,
				100.00000762939453
			],
			"translation":[
				127.2816162109375,
				0,
				0
			]
		},
		{
			"children":[
				26,
				27,
				28,
				29,
				31,
				32,
				33,
				34,
				35,
				36,
				37,
				38,
				39,
				40,
				41,
				42,
				43,
				44,
				45,
				46,
				47,
				48,
				49,
				50
			],
			"name":"RootNode.001"
		},
		{
			"children":[
				51
			],
			"name":"ea8dc923b3ee4a23b04198ca547fe3da.fbx.001",
			"rotation":[
				0.70710688829422,
				0,
				0,
				0.7071066498756409
			]
		},
		{
			"children":[
				52
			],
			"name":"Sketchfab_model.001",
			"rotation":[
				-0.70710688829422,
				0,
				0,
				0.7071066498756409
			]
		}
	],
	"materials":[
		{
			"doubleSided":true,
			"name":"02_person",
			"normalTexture":{
				"index":0
			},
			"pbrMetallicRoughness":{
				"baseColorTexture":{
					"index":1
				},
				"metallicFactor":0
			}
		},
		{
			"doubleSided":true,
			"name":"02_person.001",
			"normalTexture":{
				"index":2
			},
			"pbrMetallicRoughness":{
				"baseColorTexture":{
					"index":3
				},
				"metallicFactor":0
			}
		}
	],
	"meshes":[
		{
			"name":"02_person.003_02_person_0",
			"primitives":[
				{
					"attributes":{
						"POSITION":0,
						"NORMAL":1,
						"TEXCOORD_0":2
					},
					"indices":3,
					"material":0
				}
			]
		},
		{
			"name":"02_person.003_02_person_0.001",
			"primitives":[
				{
					"attributes":{
						"POSITION":4,
						"NORMAL":5,
						"TEXCOORD_0":6
					},
					"indices":3,
					"material":1
				}
			]
		}
	],
	"textures":[
		{
			"sampler":0,
			"source":0
		},
		{
			"sampler":0,
			"source":1
		},
		{
			"sampler":0,
			"source":0
		},
		{
			"sampler":0,
			"source":1
		}
	],
	"images":[
		{
			"mimeType":"image/jpeg",
			"name":"02_person_normal",
			"uri":"02_person_normal.jpg"
		},
		{
			"mimeType":"image/jpeg",
			"name":"02_person_baseColor",
			"uri":"02_person_baseColor.jpg"
		}
	],
	"accessors":[
		{
			"bufferView":0,
			"componentType":5126,
			"count":1554,
			"max":[
				0.16048799455165863,
				0.08114703744649887,
				0.9887624382972717
			],
			"min":[
				-0.1342255026102066,
				-0.19066737592220306,
				-0.009565349668264389
			],
			"type":"VEC3"
		},
		{
			"bufferView":1,
			"componentType":5126,
			"count":1554,
			"type":"VEC3"
		},
		{
			"bufferView":2,
			"componentType":5126,
			"count":1554,
			"type":"VEC2"
		},
		{
			"bufferView":3,
			"componentType":5123,
			"count":4500,
			"type":"SCALAR"
		},
		{
			"bufferView":4,
			"componentType":5126,
			"count":1554,
			"max":[
				0.16048799455165863,
				0.08114703744649887,
				0.9887624382972717
			],
			"min":[
				-0.1342255026102066,
				-0.19066737592220306,
				-0.009565349668264389
			],
			"type":"VEC3"
		},
		{
			"bufferView":5,
			"componentType":5126,
			"count":1554,
			"type":"VEC3"
		},
		{
			"bufferView":6,
			"componentType":5126,
			"count":1554,
			"type":"VEC2"
		}
	],
	"bufferViews":[
		{
			"buffer":0,
			"byteLength":18648,
			"byteOffset":0,
			"target":34962
		},
		{
			"buffer":0,
			"byteLength":18648,
			"byteOffset":18648,
			"target":34962
		},
		{
			"buffer":0,
			"byteLength":12432,
			"byteOffset":37296,
			"target":34962
		},
		{
			"buffer":0,
			"byteLength":9000,
			"byteOffset":49728,
			"target":34963
		},
		{
			"buffer":0,
			"byteLength":18648,
			"byteOffset":58728,
			"target":34962
		},
		{
			"buffer":0,
			"byteLength":18648,
			"byteOffset":77376,
			"target":34962
		},
		{
			"buffer":0,
			"byteLength":12432,
			"byteOffset":96024,
			"target":34962
		}
	],
	"samplers":[
		{
			"magFilter":9729,
			"minFilter":9987
		}
	],
	"buffers":[
		{
			"byteLength":108456,
			"uri":"solo_guy_3.bin"
		}
	]
}
