{
	"asset":{
		"generator":"Khronos glTF Blender I/O v4.0.44",
		"version":"2.0"
	},
	"scene":0,
	"scenes":[
		{
			"name":"Scene",
			"nodes":[
				64
			]
		}
	],
	"nodes":[
		{
			"name":"Object_65",
			"translation":[
				0,
				2.0563602447509766e-06,
				0
			]
		},
		{
			"children":[
				0
			],
			"name":"Camera.001",
			"rotation":[
				-0.1728258579969406,
				-0.7485923171043396,
				0.14399154484272003,
				0.6237044334411621
			],
			"scale":[
				100.00003051757812,
				100.00000762939453,
				100.00003051757812
			],
			"translation":[
				594.2562866210938,
				1787.3380126953125,
				-1305.6451416015625
			]
		},
		{
			"mesh":0,
			"name":"Cylinder_Material_0"
		},
		{
			"children":[
				2
			],
			"name":"Cylinder",
			"rotation":[
				-0.7062770128250122,
				0.034245941787958145,
				0.03424594923853874,
				0.7062770128250122
			],
			"scale":[
				35.8564338684082,
				35.8564338684082,
				1427.0863037109375
			],
			"translation":[
				196.2064208984375,
				1404.4444580078125,
				-4.428316116333008
			]
		},
		{
			"name":"Plane",
			"rotation":[
				-0.70710688829422,
				0,
				0,
				0.7071066498756409
			],
			"scale":[
				5000.0009765625,
				5000.00048828125,
				5000.00048828125
			],
			"translation":[
				24.971389770507812,
				106.463623046875,
				-96.39968872070312
			]
		},
		{
			"name":"Object_7",
			"translation":[
				0,
				-2.637505531311035e-06,
				0
			]
		},
		{
			"children":[
				5
			],
			"name":"Object_6",
			"rotation":[
				0.7071068286895752,
				0,
				0,
				0.7071067094802856
			]
		},
		{
			"children":[
				6
			],
			"name":"Point.001",
			"rotation":[
				0.4188310205936432,
				-0.5755483508110046,
				0.41916319727897644,
				0.56358402967453
			],
			"scale":[
				35.8564338684082,
				35.8564338684082,
				35.856441497802734
			],
			"translation":[
				306.732666015625,
				2139.73583984375,
				-365.42034912109375
			]
		},
		{
			"name":"Object_22",
			"translation":[
				0,
				-2.6300549507141113e-06,
				0
			]
		},
		{
			"children":[
				8
			],
			"name":"Object_21",
			"rotation":[
				0.7071068286895752,
				0,
				0,
				0.7071067094802856
			],
			"translation":[
				0,
				0,
				-4.0531158447265625e-06
			]
		},
		{
			"children":[
				9
			],
			"name":"Point.002",
			"rotation":[
				0.4188310205936432,
				-0.5755483508110046,
				0.41916319727897644,
				0.56358402967453
			],
			"scale":[
				35.8564338684082,
				35.8564338684082,
				35.856441497802734
			],
			"translation":[
				306.732666015625,
				2139.73583984375,
				-184.9689483642578
			]
		},
		{
			"name":"Object_25",
			"translation":[
				0,
				-3.302237018942833e-06,
				0
			]
		},
		{
			"children":[
				11
			],
			"name":"Object_24",
			"rotation":[
				0.7071068286895752,
				0,
				0,
				0.7071067094802856
			],
			"translation":[
				0,
				0,
				-4.7322828322649e-06
			]
		},
		{
			"children":[
				12
			],
			"name":"Point.003",
			"rotation":[
				0.4188310205936432,
				-0.5755483508110046,
				0.41916319727897644,
				0.56358402967453
			],
			"scale":[
				35.8564338684082,
				35.8564338684082,
				35.856441497802734
			],
			"translation":[
				306.732666015625,
				2139.73583984375,
				-9.576940536499023
			]
		},
		{
			"name":"Object_28",
			"translation":[
				0,
				-3.293156623840332e-06,
				0
			]
		},
		{
			"children":[
				14
			],
			"name":"Object_27",
			"rotation":[
				0.7071068286895752,
				0,
				0,
				0.7071067094802856
			],
			"translation":[
				0,
				0,
				-4.731118679046631e-06
			]
		},
		{
			"children":[
				15
			],
			"name":"Point.004",
			"rotation":[
				0.4188310205936432,
				-0.5755483508110046,
				0.41916319727897644,
				0.56358402967453
			],
			"scale":[
				35.8564338684082,
				35.8564338684082,
				35.856441497802734
			],
			"translation":[
				306.732666015625,
				2139.73583984375,
				170.87445068359375
			]
		},
		{
			"name":"Object_31",
			"translation":[
				0,
				-5.587935447692871e-06,
				0
			]
		},
		{
			"children":[
				17
			],
			"name":"Object_30",
			"rotation":[
				0.7071068286895752,
				0,
				0,
				0.7071067094802856
			],
			"translation":[
				0,
				0,
				-3.2186508178710938e-06
			]
		},
		{
			"children":[
				18
			],
			"name":"Point.005",
			"rotation":[
				0.4188310205936432,
				-0.5755483508110046,
				0.41916319727897644,
				0.56358402967453
			],
			"scale":[
				35.8564338684082,
				35.8564338684082,
				35.856441497802734
			],
			"translation":[
				306.732666015625,
				2139.73583984375,
				353.01226806640625
			]
		},
		{
			"name":"Object_34",
			"translation":[
				0,
				4.991888999938965e-06,
				0
			]
		},
		{
			"children":[
				20
			],
			"name":"Object_33",
			"rotation":[
				0.7071068286895752,
				0,
				0,
				0.7071067094802856
			]
		},
		{
			"children":[
				21
			],
			"name":"Point.006",
			"rotation":[
				0.4188310205936432,
				-0.5755483508110046,
				0.41916319727897644,
				0.56358402967453
			],
			"scale":[
				35.8564338684082,
				35.8564338684082,
				35.856441497802734
			],
			"translation":[
				306.732666015625,
				2348.856689453125,
				-365.42034912109375
			]
		},
		{
			"name":"Object_37",
			"translation":[
				0,
				8.814036846160889e-06,
				0
			]
		},
		{
			"children":[
				23
			],
			"name":"Object_36",
			"rotation":[
				0.7071068286895752,
				0,
				0,
				0.7071067094802856
			],
			"translation":[
				0,
				0,
				3.5762786865234375e-06
			]
		},
		{
			"children":[
				24
			],
			"name":"Point.007",
			"rotation":[
				0.4188310205936432,
				-0.5755483508110046,
				0.41916319727897644,
				0.56358402967453
			],
			"scale":[
				35.8564338684082,
				35.8564338684082,
				35.856441497802734
			],
			"translation":[
				306.732666015625,
				2348.856689453125,
				-184.9689483642578
			]
		},
		{
			"name":"Object_40",
			"translation":[
				0,
				4.327157512307167e-06,
				0
			]
		},
		{
			"children":[
				26
			],
			"name":"Object_39",
			"rotation":[
				0.7071068286895752,
				0,
				0,
				0.7071067094802856
			]
		},
		{
			"children":[
				27
			],
			"name":"Point.008",
			"rotation":[
				0.4188310205936432,
				-0.5755483508110046,
				0.41916319727897644,
				0.56358402967453
			],
			"scale":[
				35.8564338684082,
				35.8564338684082,
				35.856441497802734
			],
			"translation":[
				306.732666015625,
				2348.856689453125,
				-9.576940536499023
			]
		},
		{
			"name":"Object_43",
			"translation":[
				0,
				8.150935173034668e-06,
				0
			]
		},
		{
			"children":[
				29
			],
			"name":"Object_42",
			"rotation":[
				0.7071068286895752,
				0,
				0,
				0.7071067094802856
			],
			"translation":[
				0,
				0,
				2.898275852203369e-06
			]
		},
		{
			"children":[
				30
			],
			"name":"Point.009",
			"rotation":[
				0.4188310205936432,
				-0.5755483508110046,
				0.41916319727897644,
				0.56358402967453
			],
			"scale":[
				35.8564338684082,
				35.8564338684082,
				35.856441497802734
			],
			"translation":[
				306.732666015625,
				2348.856689453125,
				170.87445068359375
			]
		},
		{
			"name":"Object_46",
			"translation":[
				0,
				2.041459083557129e-06,
				0
			]
		},
		{
			"children":[
				32
			],
			"name":"Object_45",
			"rotation":[
				0.7071068286895752,
				0,
				0,
				0.7071067094802856
			],
			"translation":[
				0,
				0,
				-3.2186508178710938e-06
			]
		},
		{
			"children":[
				33
			],
			"name":"Point.010",
			"rotation":[
				0.4188310205936432,
				-0.5755483508110046,
				0.41916319727897644,
				0.56358402967453
			],
			"scale":[
				35.8564338684082,
				35.8564338684082,
				35.856441497802734
			],
			"translation":[
				306.732666015625,
				2348.856689453125,
				353.01226806640625
			]
		},
		{
			"name":"Object_49"
		},
		{
			"children":[
				35
			],
			"name":"Object_48",
			"rotation":[
				0.7071068286895752,
				0,
				0,
				0.7071067094802856
			]
		},
		{
			"children":[
				36
			],
			"name":"Point.011",
			"rotation":[
				0.4188310205936432,
				-0.5755483508110046,
				0.41916319727897644,
				0.56358402967453
			],
			"scale":[
				35.8564338684082,
				35.8564338684082,
				35.856441497802734
			],
			"translation":[
				306.732666015625,
				2563.880615234375,
				-365.42034912109375
			]
		},
		{
			"name":"Object_52",
			"translation":[
				0,
				-2.6300549507141113e-06,
				0
			]
		},
		{
			"children":[
				38
			],
			"name":"Object_51",
			"rotation":[
				0.7071068286895752,
				0,
				0,
				0.7071067094802856
			],
			"translation":[
				0,
				0,
				-4.0531158447265625e-06
			]
		},
		{
			"children":[
				39
			],
			"name":"Point.012",
			"rotation":[
				0.4188310205936432,
				-0.5755483508110046,
				0.41916319727897644,
				0.56358402967453
			],
			"scale":[
				35.8564338684082,
				35.8564338684082,
				35.856441497802734
			],
			"translation":[
				306.732666015625,
				2563.880615234375,
				-184.9689483642578
			]
		},
		{
			"name":"Object_55"
		},
		{
			"children":[
				41
			],
			"name":"Object_54",
			"rotation":[
				0.7071068286895752,
				0,
				0,
				0.7071067094802856
			]
		},
		{
			"children":[
				42
			],
			"name":"Point.013",
			"rotation":[
				0.4188310205936432,
				-0.5755483508110046,
				0.41916319727897644,
				0.56358402967453
			],
			"scale":[
				35.8564338684082,
				35.8564338684082,
				35.856441497802734
			],
			"translation":[
				306.732666015625,
				2563.880615234375,
				-9.576940536499023
			]
		},
		{
			"name":"Object_58",
			"translation":[
				0,
				4.336237907409668e-06,
				0
			]
		},
		{
			"children":[
				44
			],
			"name":"Object_57",
			"rotation":[
				0.7071068286895752,
				0,
				0,
				0.7071067094802856
			],
			"translation":[
				0,
				0,
				2.898275852203369e-06
			]
		},
		{
			"children":[
				45
			],
			"name":"Point.014",
			"rotation":[
				0.4188310205936432,
				-0.5755483508110046,
				0.41916319727897644,
				0.56358402967453
			],
			"scale":[
				35.8564338684082,
				35.8564338684082,
				35.856441497802734
			],
			"translation":[
				306.732666015625,
				2563.880615234375,
				170.87445068359375
			]
		},
		{
			"name":"Object_61"
		},
		{
			"children":[
				47
			],
			"name":"Object_60",
			"rotation":[
				0.7071068286895752,
				0,
				0,
				0.7071067094802856
			],
			"translation":[
				0,
				0,
				-3.2186508178710938e-06
			]
		},
		{
			"children":[
				48
			],
			"name":"Point.015",
			"rotation":[
				0.4188310205936432,
				-0.5755483508110046,
				0.41916319727897644,
				0.56358402967453
			],
			"scale":[
				35.8564338684082,
				35.8564338684082,
				35.856441497802734
			],
			"translation":[
				306.732666015625,
				2563.880615234375,
				353.01226806640625
			]
		},
		{
			"mesh":1,
			"name":"Sphere.001_Material.004_0"
		},
		{
			"children":[
				50
			],
			"name":"Sphere.001",
			"rotation":[
				0.6980059146881104,
				-0.11308383196592331,
				-0.11308382451534271,
				0.6980056166648865
			],
			"scale":[
				73.45523071289062,
				73.4552230834961,
				73.45523071289062
			],
			"translation":[
				322.0506286621094,
				2357.260498046875,
				-365.10028076171875
			]
		},
		{
			"mesh":2,
			"name":"Sphere.002_Material.001_0"
		},
		{
			"children":[
				52
			],
			"name":"Sphere.002",
			"rotation":[
				0.6980059146881104,
				-0.11308383196592331,
				-0.11308382451534271,
				0.6980056166648865
			],
			"scale":[
				73.45523071289062,
				73.4552230834961,
				73.45523071289062
			],
			"translation":[
				322.0506286621094,
				2357.260498046875,
				352.0283203125
			]
		},
		{
			"mesh":3,
			"name":"Sphere.003_Material.004_0",
			"translation":[
				0,
				0,
				-2.4426212803518865e-06
			]
		},
		{
			"children":[
				54
			],
			"name":"Sphere.003",
			"rotation":[
				0.6980059146881104,
				-0.11308383196592331,
				-0.11308382451534271,
				0.6980056166648865
			],
			"scale":[
				73.45523071289062,
				73.4552230834961,
				73.45523071289062
			],
			"translation":[
				322.0506286621094,
				2149.44140625,
				-365.10028076171875
			]
		},
		{
			"mesh":4,
			"name":"Sphere.004_Material.004_0",
			"translation":[
				0,
				0,
				-2.4426212803518865e-06
			]
		},
		{
			"children":[
				56
			],
			"name":"Sphere.004",
			"rotation":[
				0.6980059146881104,
				-0.11308383196592331,
				-0.11308382451534271,
				0.6980056166648865
			],
			"scale":[
				73.45523071289062,
				73.4552230834961,
				73.45523071289062
			],
			"translation":[
				322.0506286621094,
				2572.284423828125,
				-365.10028076171875
			]
		},
		{
			"mesh":5,
			"name":"Sphere.005_Material.001_0"
		},
		{
			"children":[
				58
			],
			"name":"Sphere.005",
			"rotation":[
				0.6980059146881104,
				-0.11308383196592331,
				-0.11308382451534271,
				0.6980056166648865
			],
			"scale":[
				73.45523071289062,
				73.4552230834961,
				73.45523071289062
			],
			"translation":[
				322.0506286621094,
				2572.284423828125,
				352.0283203125
			]
		},
		{
			"mesh":6,
			"name":"Sphere.012_Material.001_0"
		},
		{
			"children":[
				60
			],
			"name":"Sphere.012",
			"rotation":[
				0.6980059146881104,
				-0.11308383196592331,
				-0.11308382451534271,
				0.6980056166648865
			],
			"scale":[
				73.45523071289062,
				73.4552230834961,
				73.45523071289062
			],
			"translation":[
				322.0506286621094,
				2149.44140625,
				352.0283203125
			]
		},
		{
			"children":[
				1,
				3,
				4,
				7,
				10,
				13,
				16,
				19,
				22,
				25,
				28,
				31,
				34,
				37,
				40,
				43,
				46,
				49,
				51,
				53,
				55,
				57,
				59,
				61
			],
			"name":"RootNode"
		},
		{
			"children":[
				62
			],
			"name":"316d307e5be344c6bd618832e6bc8e88.fbx",
			"rotation":[
				0.70710688829422,
				0,
				0,
				0.7071066498756409
			]
		},
		{
			"children":[
				63
			],
			"name":"Sketchfab_model",
			"rotation":[
				-0.70710688829422,
				0,
				0,
				0.7071066498756409
			]
		}
	],
	"materials":[
		{
			"doubleSided":true,
			"name":"Material.001",
			"pbrMetallicRoughness":{
				"baseColorFactor":[
					0,
					0,
					0,
					1
				],
				"metallicFactor":0
			}
		},
		{
			"doubleSided":true,
			"name":"Material.004",
			"pbrMetallicRoughness":{
				"baseColorFactor":[
					0.800000011920929,
					0.800000011920929,
					0.800000011920929,
					1
				],
				"metallicFactor":0,
				"roughnessFactor":0.8040408492088318
			}
		},
		{
			"doubleSided":true,
			"name":"Material.002",
			"pbrMetallicRoughness":{
				"baseColorFactor":[
					0,
					0,
					0,
					1
				],
				"metallicFactor":0
			}
		}
	],
	"meshes":[
		{
			"name":"Cylinder_Material_0",
			"primitives":[
				{
					"attributes":{
						"POSITION":0,
						"NORMAL":1,
						"TEXCOORD_0":2
					},
					"indices":3,
					"material":0
				}
			]
		},
		{
			"name":"Sphere.001_Material.004_0",
			"primitives":[
				{
					"attributes":{
						"POSITION":4,
						"NORMAL":5,
						"TEXCOORD_0":6
					},
					"indices":7,
					"material":1
				}
			]
		},
		{
			"name":"Sphere.002_Material.001_0",
			"primitives":[
				{
					"attributes":{
						"POSITION":8,
						"NORMAL":9,
						"TEXCOORD_0":10
					},
					"indices":11,
					"material":2
				}
			]
		},
		{
			"name":"Sphere.003_Material.004_0",
			"primitives":[
				{
					"attributes":{
						"POSITION":12,
						"NORMAL":13,
						"TEXCOORD_0":14
					},
					"indices":7,
					"material":1
				}
			]
		},
		{
			"name":"Sphere.004_Material.004_0",
			"primitives":[
				{
					"attributes":{
						"POSITION":15,
						"NORMAL":16,
						"TEXCOORD_0":17
					},
					"indices":7,
					"material":1
				}
			]
		},
		{
			"name":"Sphere.005_Material.001_0",
			"primitives":[
				{
					"attributes":{
						"POSITION":18,
						"NORMAL":19,
						"TEXCOORD_0":20
					},
					"indices":11,
					"material":2
				}
			]
		},
		{
			"name":"Sphere.012_Material.001_0",
			"primitives":[
				{
					"attributes":{
						"POSITION":21,
						"NORMAL":22,
						"TEXCOORD_0":23
					},
					"indices":11,
					"material":2
				}
			]
		}
	],
	"accessors":[
		{
			"bufferView":0,
			"componentType":5126,
			"count":1686,
			"max":[
				3.0952682495117188,
				12.32490062713623,
				0.8983163833618164
			],
			"min":[
				-1.2999999523162842,
				-12.595804214477539,
				-1.002198576927185
			],
			"type":"VEC3"
		},
		{
			"bufferView":1,
			"componentType":5126,
			"count":1686,
			"type":"VEC3"
		},
		{
			"bufferView":2,
			"componentType":5126,
			"count":1686,
			"type":"VEC2"
		},
		{
			"bufferView":3,
			"componentType":5123,
			"count":2760,
			"type":"SCALAR"
		},
		{
			"bufferView":4,
			"componentType":5126,
			"count":13338,
			"max":[
				0.23481324315071106,
				10.809525489807129,
				0.9899551272392273
			],
			"min":[
				-0.7564043402671814,
				-0.9989451169967651,
				-0.9900481104850769
			],
			"type":"VEC3"
		},
		{
			"bufferView":5,
			"componentType":5126,
			"count":13338,
			"type":"VEC3"
		},
		{
			"bufferView":6,
			"componentType":5126,
			"count":13338,
			"type":"VEC2"
		},
		{
			"bufferView":7,
			"componentType":5123,
			"count":19380,
			"type":"SCALAR"
		},
		{
			"bufferView":8,
			"componentType":5126,
			"count":31421,
			"max":[
				0.28156957030296326,
				1.15591299533844,
				1.020003080368042
			],
			"min":[
				-1.2589037418365479,
				-10.914250373840332,
				-1.0200004577636719
			],
			"type":"VEC3"
		},
		{
			"bufferView":9,
			"componentType":5126,
			"count":31421,
			"type":"VEC3"
		},
		{
			"bufferView":10,
			"componentType":5126,
			"count":31421,
			"type":"VEC2"
		},
		{
			"bufferView":11,
			"componentType":5123,
			"count":46800,
			"type":"SCALAR"
		},
		{
			"bufferView":12,
			"componentType":5126,
			"count":13338,
			"max":[
				0.23481324315071106,
				10.809525489807129,
				0.9899551272392273
			],
			"min":[
				-0.7564043402671814,
				-0.9989451169967651,
				-0.9900481104850769
			],
			"type":"VEC3"
		},
		{
			"bufferView":13,
			"componentType":5126,
			"count":13338,
			"type":"VEC3"
		},
		{
			"bufferView":14,
			"componentType":5126,
			"count":13338,
			"type":"VEC2"
		},
		{
			"bufferView":15,
			"componentType":5126,
			"count":13338,
			"max":[
				0.23481324315071106,
				10.809525489807129,
				0.9899551272392273
			],
			"min":[
				-0.7564043402671814,
				-0.9989451169967651,
				-0.9900481104850769
			],
			"type":"VEC3"
		},
		{
			"bufferView":16,
			"componentType":5126,
			"count":13338,
			"type":"VEC3"
		},
		{
			"bufferView":17,
			"componentType":5126,
			"count":13338,
			"type":"VEC2"
		},
		{
			"bufferView":18,
			"componentType":5126,
			"count":31421,
			"max":[
				0.28156957030296326,
				1.15591299533844,
				1.020003080368042
			],
			"min":[
				-1.2589037418365479,
				-10.914250373840332,
				-1.0200004577636719
			],
			"type":"VEC3"
		},
		{
			"bufferView":19,
			"componentType":5126,
			"count":31421,
			"type":"VEC3"
		},
		{
			"bufferView":20,
			"componentType":5126,
			"count":31421,
			"type":"VEC2"
		},
		{
			"bufferView":21,
			"componentType":5126,
			"count":31421,
			"max":[
				0.28156957030296326,
				1.15591299533844,
				1.020003080368042
			],
			"min":[
				-1.2589037418365479,
				-10.914250373840332,
				-1.0200004577636719
			],
			"type":"VEC3"
		},
		{
			"bufferView":22,
			"componentType":5126,
			"count":31421,
			"type":"VEC3"
		},
		{
			"bufferView":23,
			"componentType":5126,
			"count":31421,
			"type":"VEC2"
		}
	],
	"bufferViews":[
		{
			"buffer":0,
			"byteLength":20232,
			"byteOffset":0,
			"target":34962
		},
		{
			"buffer":0,
			"byteLength":20232,
			"byteOffset":20232,
			"target":34962
		},
		{
			"buffer":0,
			"byteLength":13488,
			"byteOffset":40464,
			"target":34962
		},
		{
			"buffer":0,
			"byteLength":5520,
			"byteOffset":53952,
			"target":34963
		},
		{
			"buffer":0,
			"byteLength":160056,
			"byteOffset":59472,
			"target":34962
		},
		{
			"buffer":0,
			"byteLength":160056,
			"byteOffset":219528,
			"target":34962
		},
		{
			"buffer":0,
			"byteLength":106704,
			"byteOffset":379584,
			"target":34962
		},
		{
			"buffer":0,
			"byteLength":38760,
			"byteOffset":486288,
			"target":34963
		},
		{
			"buffer":0,
			"byteLength":377052,
			"byteOffset":525048,
			"target":34962
		},
		{
			"buffer":0,
			"byteLength":377052,
			"byteOffset":902100,
			"target":34962
		},
		{
			"buffer":0,
			"byteLength":251368,
			"byteOffset":1279152,
			"target":34962
		},
		{
			"buffer":0,
			"byteLength":93600,
			"byteOffset":1530520,
			"target":34963
		},
		{
			"buffer":0,
			"byteLength":160056,
			"byteOffset":1624120,
			"target":34962
		},
		{
			"buffer":0,
			"byteLength":160056,
			"byteOffset":1784176,
			"target":34962
		},
		{
			"buffer":0,
			"byteLength":106704,
			"byteOffset":1944232,
			"target":34962
		},
		{
			"buffer":0,
			"byteLength":160056,
			"byteOffset":2050936,
			"target":34962
		},
		{
			"buffer":0,
			"byteLength":160056,
			"byteOffset":2210992,
			"target":34962
		},
		{
			"buffer":0,
			"byteLength":106704,
			"byteOffset":2371048,
			"target":34962
		},
		{
			"buffer":0,
			"byteLength":377052,
			"byteOffset":2477752,
			"target":34962
		},
		{
			"buffer":0,
			"byteLength":377052,
			"byteOffset":2854804,
			"target":34962
		},
		{
			"buffer":0,
			"byteLength":251368,
			"byteOffset":3231856,
			"target":34962
		},
		{
			"buffer":0,
			"byteLength":377052,
			"byteOffset":3483224,
			"target":34962
		},
		{
			"buffer":0,
			"byteLength":377052,
			"byteOffset":3860276,
			"target":34962
		},
		{
			"buffer":0,
			"byteLength":251368,
			"byteOffset":4237328,
			"target":34962
		}
	],
	"buffers":[
		{
			"byteLength":4488696,
			"uri":"scene_improved.bin"
		}
	]
}
