{
	"asset":{
		"generator":"Khronos glTF Blender I/O v4.0.44",
		"version":"2.0"
	},
	"scene":0,
	"scenes":[
		{
			"name":"Scene",
			"nodes":[
				0,
				1,
				2,
				3,
				4,
				5,
				6,
				7,
				8,
				9,
				10,
				11,
				12,
				13,
				14,
				15,
				16,
				17
			]
		}
	],
	"nodes":[
		{
			"mesh":0,
			"name":"caliper1.003",
			"rotation":[
				0.7068309187889099,
				-0.012464238330721855,
				-0.012464532628655434,
				0.7071629762649536
			],
			"scale":[
				0.037899117916822433,
				0.037899117916822433,
				0.03789912164211273
			],
			"translation":[
				2.083799362182617,
				0.7029063105583191,
				1.1256450414657593
			]
		},
		{
			"mesh":1,
			"name":"caliper1.002",
			"rotation":[
				-0.012464473024010658,
				0.7071630358695984,
				-0.7068308591842651,
				0.012464288622140884
			],
			"scale":[
				0.03789912164211273,
				0.037899117916822433,
				0.03789912164211273
			],
			"translation":[
				2.080310106277466,
				0.694178581237793,
				-1.22408127784729
			]
		},
		{
			"mesh":2,
			"name":"brak rotor 2.001",
			"rotation":[
				0.7071067690849304,
				0,
				0,
				0.7071068286895752
			],
			"scale":[
				0.04568497836589813,
				0.04568497836589813,
				0.04568497836589813
			],
			"translation":[
				-2.236102342605591,
				0.48051610589027405,
				-1.2320679426193237
			]
		},
		{
			"mesh":3,
			"name":"caliper1.001",
			"rotation":[
				-0.012464473024010658,
				0.7071630358695984,
				-0.7068308591842651,
				0.012464288622140884
			],
			"scale":[
				0.03789912164211273,
				0.037899117916822433,
				0.03789912164211273
			],
			"translation":[
				-2.2368016242980957,
				0.6438694596290588,
				-1.2498302459716797
			]
		},
		{
			"mesh":4,
			"name":"Cube",
			"translation":[
				-1.3660186529159546,
				0.6443450450897217,
				-0.010991603136062622
			]
		},
		{
			"mesh":5,
			"name":"Circle.002",
			"scale":[
				1,
				0.800000011920929,
				0.800000011920929
			],
			"translation":[
				-0.6953823566436768,
				1.1760226488113403,
				-0.01641770824790001
			]
		},
		{
			"mesh":6,
			"name":"Circle.001",
			"rotation":[
				0,
				0,
				-1,
				0
			],
			"scale":[
				-1,
				-1,
				-1
			],
			"translation":[
				-2.3000879287719727,
				0.4820101261138916,
				0.6505972743034363
			]
		},
		{
			"mesh":7,
			"name":"Circle",
			"translation":[
				-2.3000879287719727,
				0.4820101261138916,
				-0.6526231169700623
			]
		},
		{
			"mesh":8,
			"name":"brake rotor 4",
			"rotation":[
				0.7071067690849304,
				0,
				0,
				0.7071068286895752
			],
			"scale":[
				0.04568497836589813,
				0.04568497836589813,
				0.04568497836589813
			],
			"translation":[
				2.083207845687866,
				0.5372484922409058,
				1.0836882591247559
			]
		},
		{
			"mesh":9,
			"name":"brake rotor 3",
			"rotation":[
				0.7071067690849304,
				0,
				0,
				0.7071068286895752
			],
			"scale":[
				0.04568497836589813,
				0.04568497836589813,
				0.04568497836589813
			],
			"translation":[
				2.083207845687866,
				0.539021372795105,
				-1.1727358102798462
			]
		},
		{
			"mesh":10,
			"name":"rear end",
			"translation":[
				2.1976311206817627,
				0.49404072761535645,
				-0.0685441792011261
			]
		},
		{
			"mesh":11,
			"name":"wing support",
			"rotation":[
				0.70710688829422,
				0,
				0,
				0.7071066498756409
			],
			"translation":[
				2.9940311908721924,
				0.8091742992401123,
				-0.010985145345330238
			]
		},
		{
			"mesh":12,
			"name":"wing",
			"translation":[
				3.136871814727783,
				1.176424503326416,
				-0.02526431903243065
			]
		},
		{
			"mesh":13,
			"name":"Body",
			"translation":[
				-0.6536329984664917,
				0.666840672492981,
				-0.02820301055908203
			]
		},
		{
			"mesh":14,
			"name":"brake roto 1",
			"rotation":[
				0,
				0.70710688829422,
				-0.7071067094802856,
				5.338508302088485e-08
			],
			"scale":[
				0.04568498209118843,
				0.04568497836589813,
				0.04568497836589813
			],
			"translation":[
				-2.23610258102417,
				0.48051607608795166,
				1.2054866552352905
			]
		},
		{
			"mesh":15,
			"name":"Cylinder",
			"rotation":[
				0,
				-0.7071068286895752,
				0.7071068286895752,
				3.090862321641907e-08
			],
			"scale":[
				0.07020578533411026,
				0.07020577788352966,
				0.07020577788352966
			],
			"translation":[
				-1.105627417564392,
				0.6430189609527588,
				-0.005067897029221058
			]
		},
		{
			"mesh":16,
			"name":"caliper1",
			"rotation":[
				0.7071067690849304,
				0,
				0,
				0.7071068286895752
			],
			"scale":[
				0.037899117916822433,
				0.037899117916822433,
				0.037899117916822433
			],
			"translation":[
				-2.2368016242980957,
				0.6438694596290588,
				1.2678276300430298
			]
		},
		{
			"mesh":17,
			"name":"Cube.001",
			"rotation":[
				0.4999999701976776,
				0.4999999701976776,
				-0.5,
				0.5
			],
			"scale":[
				0.10000001639127731,
				0.10000001639127731,
				0.10000001639127731
			],
			"translation":[
				-1.7000000476837158,
				0.8021037578582764,
				0
			]
		}
	],
	"materials":[
		{
			"doubleSided":true,
			"name":"body",
			"pbrMetallicRoughness":{
				"baseColorFactor":[
					0.8105921149253845,
					0,
					0,
					1
				],
				"metallicFactor":0,
				"roughnessFactor":0.5
			}
		},
		{
			"doubleSided":true,
			"name":"Material.003",
			"pbrMetallicRoughness":{
				"metallicFactor":0,
				"roughnessFactor":0.5
			}
		},
		{
			"doubleSided":true,
			"name":"Material.001",
			"pbrMetallicRoughness":{
				"baseColorFactor":[
					0,
					0,
					0,
					1
				],
				"metallicFactor":0,
				"roughnessFactor":0.5
			}
		},
		{
			"doubleSided":true,
			"name":"Material.002",
			"pbrMetallicRoughness":{
				"metallicFactor":0,
				"roughnessFactor":0.5
			}
		},
		{
			"doubleSided":true,
			"name":"rear end",
			"pbrMetallicRoughness":{
				"baseColorFactor":[
					0,
					0,
					0,
					1
				],
				"metallicFactor":0,
				"roughnessFactor":0.5
			}
		},
		{
			"doubleSided":true,
			"name":"Material.004",
			"pbrMetallicRoughness":{
				"baseColorFactor":[
					0,
					0,
					0,
					1
				],
				"metallicFactor":0,
				"roughnessFactor":0.5
			}
		}
	],
	"meshes":[
		{
			"name":"Circle.020",
			"primitives":[
				{
					"attributes":{
						"POSITION":0,
						"NORMAL":1
					},
					"indices":2,
					"material":0
				}
			]
		},
		{
			"name":"Circle.019",
			"primitives":[
				{
					"attributes":{
						"POSITION":3,
						"NORMAL":4
					},
					"indices":2,
					"material":0
				}
			]
		},
		{
			"name":"Circle.018",
			"primitives":[
				{
					"attributes":{
						"POSITION":5,
						"NORMAL":6
					},
					"indices":7,
					"material":1
				}
			]
		},
		{
			"name":"Circle.017",
			"primitives":[
				{
					"attributes":{
						"POSITION":8,
						"NORMAL":9
					},
					"indices":2,
					"material":0
				}
			]
		},
		{
			"name":"Cube.004",
			"primitives":[
				{
					"attributes":{
						"POSITION":10,
						"NORMAL":11
					},
					"indices":12,
					"material":2
				}
			]
		},
		{
			"name":"Circle.010",
			"primitives":[
				{
					"attributes":{
						"POSITION":13,
						"NORMAL":14
					},
					"indices":15,
					"material":3
				}
			]
		},
		{
			"name":"Circle.009",
			"primitives":[
				{
					"attributes":{
						"POSITION":16,
						"NORMAL":17
					},
					"indices":18,
					"material":4
				}
			]
		},
		{
			"name":"Circle.008",
			"primitives":[
				{
					"attributes":{
						"POSITION":19,
						"NORMAL":20
					},
					"indices":18,
					"material":4
				}
			]
		},
		{
			"name":"Circle.007",
			"primitives":[
				{
					"attributes":{
						"POSITION":21,
						"NORMAL":22
					},
					"indices":7,
					"material":1
				}
			]
		},
		{
			"name":"Circle.006",
			"primitives":[
				{
					"attributes":{
						"POSITION":23,
						"NORMAL":24
					},
					"indices":7,
					"material":1
				}
			]
		},
		{
			"name":"Cube.003",
			"primitives":[
				{
					"attributes":{
						"POSITION":25,
						"NORMAL":26
					},
					"indices":27,
					"material":4
				}
			]
		},
		{
			"name":"Cube.002",
			"primitives":[
				{
					"attributes":{
						"POSITION":28,
						"NORMAL":29
					},
					"indices":30,
					"material":5
				}
			]
		},
		{
			"name":"Cube.001",
			"primitives":[
				{
					"attributes":{
						"POSITION":31,
						"NORMAL":32
					},
					"indices":33,
					"material":5
				}
			]
		},
		{
			"name":"Cube.005",
			"primitives":[
				{
					"attributes":{
						"POSITION":34,
						"NORMAL":35
					},
					"indices":36,
					"material":0
				}
			]
		},
		{
			"name":"Circle.003",
			"primitives":[
				{
					"attributes":{
						"POSITION":37,
						"NORMAL":38
					},
					"indices":7,
					"material":1
				}
			]
		},
		{
			"name":"Cylinder",
			"primitives":[
				{
					"attributes":{
						"POSITION":39,
						"NORMAL":40
					},
					"indices":41
				}
			]
		},
		{
			"name":"Circle.016",
			"primitives":[
				{
					"attributes":{
						"POSITION":42,
						"NORMAL":43
					},
					"indices":2,
					"material":0
				}
			]
		},
		{
			"name":"Cube.006",
			"primitives":[
				{
					"attributes":{
						"POSITION":44,
						"NORMAL":45
					},
					"indices":46
				}
			]
		}
	],
	"accessors":[
		{
			"bufferView":0,
			"componentType":5126,
			"count":138,
			"max":[
				3.7311553955078125,
				0.30000001192092896,
				1.749840497970581
			],
			"min":[
				-3.7311553955078125,
				-0.30000001192092896,
				-1.749840497970581
			],
			"type":"VEC3"
		},
		{
			"bufferView":1,
			"componentType":5126,
			"count":138,
			"type":"VEC3"
		},
		{
			"bufferView":2,
			"componentType":5123,
			"count":816,
			"type":"SCALAR"
		},
		{
			"bufferView":3,
			"componentType":5126,
			"count":138,
			"max":[
				3.7311553955078125,
				0.30000001192092896,
				1.749840497970581
			],
			"min":[
				-3.7311553955078125,
				-0.30000001192092896,
				-1.749840497970581
			],
			"type":"VEC3"
		},
		{
			"bufferView":4,
			"componentType":5126,
			"count":138,
			"type":"VEC3"
		},
		{
			"bufferView":5,
			"componentType":5126,
			"count":1025,
			"max":[
				4.242641925811768,
				0.049999989569187164,
				4.242642402648926
			],
			"min":[
				-4.242641925811768,
				-0.049999989569187164,
				-4.242642402648926
			],
			"type":"VEC3"
		},
		{
			"bufferView":6,
			"componentType":5126,
			"count":1025,
			"type":"VEC3"
		},
		{
			"bufferView":7,
			"componentType":5123,
			"count":5760,
			"type":"SCALAR"
		},
		{
			"bufferView":8,
			"componentType":5126,
			"count":138,
			"max":[
				3.7311553955078125,
				0.30000001192092896,
				1.749840497970581
			],
			"min":[
				-3.7311553955078125,
				-0.30000001192092896,
				-1.749840497970581
			],
			"type":"VEC3"
		},
		{
			"bufferView":9,
			"componentType":5126,
			"count":138,
			"type":"VEC3"
		},
		{
			"bufferView":10,
			"componentType":5126,
			"count":233,
			"max":[
				1.8485023975372314,
				0.4146011471748352,
				1.3504307270050049
			],
			"min":[
				-1.5923258066177368,
				-0.41460108757019043,
				-1.3897931575775146
			],
			"type":"VEC3"
		},
		{
			"bufferView":11,
			"componentType":5126,
			"count":233,
			"type":"VEC3"
		},
		{
			"bufferView":12,
			"componentType":5123,
			"count":432,
			"type":"SCALAR"
		},
		{
			"bufferView":13,
			"componentType":5126,
			"count":140,
			"max":[
				0.04592272639274597,
				0.2351139485836029,
				0.28926292061805725
			],
			"min":[
				-0.04592272639274597,
				-0.2351139485836029,
				-0.28926292061805725
			],
			"type":"VEC3"
		},
		{
			"bufferView":14,
			"componentType":5126,
			"count":140,
			"type":"VEC3"
		},
		{
			"bufferView":15,
			"componentType":5123,
			"count":720,
			"type":"SCALAR"
		},
		{
			"bufferView":16,
			"componentType":5126,
			"count":80,
			"max":[
				0.5282884240150452,
				0.23528432846069336,
				0.5428381562232971
			],
			"min":[
				-0.5282884240150452,
				-0.23528432846069336,
				-0.5428381562232971
			],
			"type":"VEC3"
		},
		{
			"bufferView":17,
			"componentType":5126,
			"count":80,
			"type":"VEC3"
		},
		{
			"bufferView":18,
			"componentType":5123,
			"count":366,
			"type":"SCALAR"
		},
		{
			"bufferView":19,
			"componentType":5126,
			"count":80,
			"max":[
				0.5282884240150452,
				0.23528432846069336,
				0.5428381562232971
			],
			"min":[
				-0.5282884240150452,
				-0.23528432846069336,
				-0.5428381562232971
			],
			"type":"VEC3"
		},
		{
			"bufferView":20,
			"componentType":5126,
			"count":80,
			"type":"VEC3"
		},
		{
			"bufferView":21,
			"componentType":5126,
			"count":1025,
			"max":[
				4.242641925811768,
				0.049999989569187164,
				4.242642402648926
			],
			"min":[
				-4.242641925811768,
				-0.049999989569187164,
				-4.242642402648926
			],
			"type":"VEC3"
		},
		{
			"bufferView":22,
			"componentType":5126,
			"count":1025,
			"type":"VEC3"
		},
		{
			"bufferView":23,
			"componentType":5126,
			"count":1025,
			"max":[
				4.242641925811768,
				0.049999989569187164,
				4.242642402648926
			],
			"min":[
				-4.242641925811768,
				-0.049999989569187164,
				-4.242642402648926
			],
			"type":"VEC3"
		},
		{
			"bufferView":24,
			"componentType":5126,
			"count":1025,
			"type":"VEC3"
		},
		{
			"bufferView":25,
			"componentType":5126,
			"count":87,
			"max":[
				0.37216562032699585,
				0.2193739265203476,
				1.1839218139648438
			],
			"min":[
				-0.37216562032699585,
				-0.2193739265203476,
				-1.1839218139648438
			],
			"type":"VEC3"
		},
		{
			"bufferView":26,
			"componentType":5126,
			"count":87,
			"type":"VEC3"
		},
		{
			"bufferView":27,
			"componentType":5123,
			"count":510,
			"type":"SCALAR"
		},
		{
			"bufferView":28,
			"componentType":5126,
			"count":10,
			"max":[
				0.46075525879859924,
				0.05000001937150955,
				0.4870460331439972
			],
			"min":[
				-0.46075525879859924,
				-0.05000001937150955,
				-0.4870460331439972
			],
			"type":"VEC3"
		},
		{
			"bufferView":29,
			"componentType":5126,
			"count":10,
			"type":"VEC3"
		},
		{
			"bufferView":30,
			"componentType":5123,
			"count":48,
			"type":"SCALAR"
		},
		{
			"bufferView":31,
			"componentType":5126,
			"count":38,
			"max":[
				0.46951383352279663,
				0.3001354932785034,
				1.0373361110687256
			],
			"min":[
				-0.46951383352279663,
				-0.3001354932785034,
				-1.0373361110687256
			],
			"type":"VEC3"
		},
		{
			"bufferView":32,
			"componentType":5126,
			"count":38,
			"type":"VEC3"
		},
		{
			"bufferView":33,
			"componentType":5123,
			"count":216,
			"type":"SCALAR"
		},
		{
			"bufferView":34,
			"componentType":5126,
			"count":778,
			"max":[
				2.9642674922943115,
				0.44502824544906616,
				1.4229995012283325
			],
			"min":[
				-2.9642672538757324,
				-0.6362988352775574,
				-1.4317995309829712
			],
			"type":"VEC3"
		},
		{
			"bufferView":35,
			"componentType":5126,
			"count":778,
			"type":"VEC3"
		},
		{
			"bufferView":36,
			"componentType":5123,
			"count":4326,
			"type":"SCALAR"
		},
		{
			"bufferView":37,
			"componentType":5126,
			"count":1025,
			"max":[
				4.242641925811768,
				0.049999989569187164,
				4.242642402648926
			],
			"min":[
				-4.242641925811768,
				-0.049999989569187164,
				-4.242642402648926
			],
			"type":"VEC3"
		},
		{
			"bufferView":38,
			"componentType":5126,
			"count":1025,
			"type":"VEC3"
		},
		{
			"bufferView":39,
			"componentType":5126,
			"count":84,
			"max":[
				4.500000476837158,
				4,
				5.500000953674316
			],
			"min":[
				-4.500000476837158,
				-4,
				-5.500000476837158
			],
			"type":"VEC3"
		},
		{
			"bufferView":40,
			"componentType":5126,
			"count":84,
			"type":"VEC3"
		},
		{
			"bufferView":41,
			"componentType":5123,
			"count":495,
			"type":"SCALAR"
		},
		{
			"bufferView":42,
			"componentType":5126,
			"count":138,
			"max":[
				3.7311553955078125,
				0.30000001192092896,
				1.749840497970581
			],
			"min":[
				-3.7311553955078125,
				-0.30000001192092896,
				-1.749840497970581
			],
			"type":"VEC3"
		},
		{
			"bufferView":43,
			"componentType":5126,
			"count":138,
			"type":"VEC3"
		},
		{
			"bufferView":44,
			"componentType":5126,
			"count":88,
			"max":[
				2.630000114440918,
				0.697706937789917,
				1.0000005960464478
			],
			"min":[
				-2.630000352859497,
				-0.002293139696121216,
				-1.0000003576278687
			],
			"type":"VEC3"
		},
		{
			"bufferView":45,
			"componentType":5126,
			"count":88,
			"type":"VEC3"
		},
		{
			"bufferView":46,
			"componentType":5123,
			"count":510,
			"type":"SCALAR"
		}
	],
	"bufferViews":[
		{
			"buffer":0,
			"byteLength":1656,
			"byteOffset":0,
			"target":34962
		},
		{
			"buffer":0,
			"byteLength":1656,
			"byteOffset":1656,
			"target":34962
		},
		{
			"buffer":0,
			"byteLength":1632,
			"byteOffset":3312,
			"target":34963
		},
		{
			"buffer":0,
			"byteLength":1656,
			"byteOffset":4944,
			"target":34962
		},
		{
			"buffer":0,
			"byteLength":1656,
			"byteOffset":6600,
			"target":34962
		},
		{
			"buffer":0,
			"byteLength":12300,
			"byteOffset":8256,
			"target":34962
		},
		{
			"buffer":0,
			"byteLength":12300,
			"byteOffset":20556,
			"target":34962
		},
		{
			"buffer":0,
			"byteLength":11520,
			"byteOffset":32856,
			"target":34963
		},
		{
			"buffer":0,
			"byteLength":1656,
			"byteOffset":44376,
			"target":34962
		},
		{
			"buffer":0,
			"byteLength":1656,
			"byteOffset":46032,
			"target":34962
		},
		{
			"buffer":0,
			"byteLength":2796,
			"byteOffset":47688,
			"target":34962
		},
		{
			"buffer":0,
			"byteLength":2796,
			"byteOffset":50484,
			"target":34962
		},
		{
			"buffer":0,
			"byteLength":864,
			"byteOffset":53280,
			"target":34963
		},
		{
			"buffer":0,
			"byteLength":1680,
			"byteOffset":54144,
			"target":34962
		},
		{
			"buffer":0,
			"byteLength":1680,
			"byteOffset":55824,
			"target":34962
		},
		{
			"buffer":0,
			"byteLength":1440,
			"byteOffset":57504,
			"target":34963
		},
		{
			"buffer":0,
			"byteLength":960,
			"byteOffset":58944,
			"target":34962
		},
		{
			"buffer":0,
			"byteLength":960,
			"byteOffset":59904,
			"target":34962
		},
		{
			"buffer":0,
			"byteLength":732,
			"byteOffset":60864,
			"target":34963
		},
		{
			"buffer":0,
			"byteLength":960,
			"byteOffset":61596,
			"target":34962
		},
		{
			"buffer":0,
			"byteLength":960,
			"byteOffset":62556,
			"target":34962
		},
		{
			"buffer":0,
			"byteLength":12300,
			"byteOffset":63516,
			"target":34962
		},
		{
			"buffer":0,
			"byteLength":12300,
			"byteOffset":75816,
			"target":34962
		},
		{
			"buffer":0,
			"byteLength":12300,
			"byteOffset":88116,
			"target":34962
		},
		{
			"buffer":0,
			"byteLength":12300,
			"byteOffset":100416,
			"target":34962
		},
		{
			"buffer":0,
			"byteLength":1044,
			"byteOffset":112716,
			"target":34962
		},
		{
			"buffer":0,
			"byteLength":1044,
			"byteOffset":113760,
			"target":34962
		},
		{
			"buffer":0,
			"byteLength":1020,
			"byteOffset":114804,
			"target":34963
		},
		{
			"buffer":0,
			"byteLength":120,
			"byteOffset":115824,
			"target":34962
		},
		{
			"buffer":0,
			"byteLength":120,
			"byteOffset":115944,
			"target":34962
		},
		{
			"buffer":0,
			"byteLength":96,
			"byteOffset":116064,
			"target":34963
		},
		{
			"buffer":0,
			"byteLength":456,
			"byteOffset":116160,
			"target":34962
		},
		{
			"buffer":0,
			"byteLength":456,
			"byteOffset":116616,
			"target":34962
		},
		{
			"buffer":0,
			"byteLength":432,
			"byteOffset":117072,
			"target":34963
		},
		{
			"buffer":0,
			"byteLength":9336,
			"byteOffset":117504,
			"target":34962
		},
		{
			"buffer":0,
			"byteLength":9336,
			"byteOffset":126840,
			"target":34962
		},
		{
			"buffer":0,
			"byteLength":8652,
			"byteOffset":136176,
			"target":34963
		},
		{
			"buffer":0,
			"byteLength":12300,
			"byteOffset":144828,
			"target":34962
		},
		{
			"buffer":0,
			"byteLength":12300,
			"byteOffset":157128,
			"target":34962
		},
		{
			"buffer":0,
			"byteLength":1008,
			"byteOffset":169428,
			"target":34962
		},
		{
			"buffer":0,
			"byteLength":1008,
			"byteOffset":170436,
			"target":34962
		},
		{
			"buffer":0,
			"byteLength":990,
			"byteOffset":171444,
			"target":34963
		},
		{
			"buffer":0,
			"byteLength":1656,
			"byteOffset":172436,
			"target":34962
		},
		{
			"buffer":0,
			"byteLength":1656,
			"byteOffset":174092,
			"target":34962
		},
		{
			"buffer":0,
			"byteLength":1056,
			"byteOffset":175748,
			"target":34962
		},
		{
			"buffer":0,
			"byteLength":1056,
			"byteOffset":176804,
			"target":34962
		},
		{
			"buffer":0,
			"byteLength":1020,
			"byteOffset":177860,
			"target":34963
		}
	],
	"buffers":[
		{
			"byteLength":178880,
			"uri":"car_2gltf.bin"
		}
	]
}
